<svg id="Calque_1" data-name="Calque 1" xmlns="http://www.w3.org/2000/svg" viewBox="0 0 126.14 114.76"><defs><style>.cls-1{fill:#010202;stroke:#010101;stroke-miterlimit:10;}.cls-2{fill:#fbfbfb;}</style></defs><title>default</title><path class="cls-1" d="M99.12,86.05Q104,100.3,109,114.55c2.58,7.45,5,15,7.84,22.34,1.35,3.57.27,6.27-2,8.8-2.87,3.24-6.7,4.82-10.86,5.5-8.06,1.32-16.09,1.52-23.77-1.9a12.63,12.63,0,0,1-7.4-7.86,4.93,4.93,0,0,1,.07-3.26q9.06-26,18.07-52c-.47-.51-1.15-.4-1.73-.55a3.53,3.53,0,0,1-2.87-3.82,3.57,3.57,0,0,1,3.33-3.43,17.22,17.22,0,0,1,1.9,0c12.53,0,25.06,0,37.58,0,1.56,0,2-.36,2-2A101.32,101.32,0,0,1,131.56,64a3.34,3.34,0,0,1,3.21-3.08A3.43,3.43,0,0,1,138.54,63a7.45,7.45,0,0,1,.46,2.88c.11,3.52.23,7,.17,10.56,0,1.6.49,2,2,2,12.74-.06,25.48,0,38.22,0,2.09,0,3.79.53,4.48,2.67a3.41,3.41,0,0,1-2.79,4.57c-1.89.27-1.54,1.06-1.11,2.3,5.75,16.56,11.39,33.16,17.24,49.68,1.13,3.18,0,5.49-1.74,7.7-2.86,3.59-6.89,5.24-11.28,6-8,1.32-15.93,1.44-23.59-1.82a13.91,13.91,0,0,1-5.76-4.46c-1.75-2.33-2.49-4.7-1.39-7.79,5.82-16.36,11.42-32.79,17.1-49.2.2-.59.39-1.19.59-1.78-.59-.52-1.24-.29-1.83-.29q-13.93,0-27.87,0c-.62,0-1.61-.47-1.83.43a2.73,2.73,0,0,0,.56,2.72c3.3,3.62,3.39,7,.31,10.68a3.28,3.28,0,0,0-.56,2.55q.63,26,1.28,51.92c0,2.11.15,4.22,0,6.33-.07,1.49.5,1.87,1.91,2a39.29,39.29,0,0,1,13.68,3.07c4,1.77,7.4,4.22,8.52,9.07H107.19c-2.4,0-2.49-.12-1.48-2.28,2-4.3,5.92-6.24,10.07-7.69a39.1,39.1,0,0,1,11.54-2.18c1.36-.05,1.72-.54,1.75-1.89q.63-29.45,1.39-58.88a3,3,0,0,0-.87-2.22,7.33,7.33,0,0,1,.21-10.1,2.91,2.91,0,0,0,1-2.16c0-.94-.15-1.38-1.24-1.37-10,0-20,0-30,.05A1.7,1.7,0,0,0,99.12,86.05Z" transform="translate(-72.07 -60.34)"/><path class="cls-2" d="M98,98.38l3.33,9.75c3.37,9.9,6.7,19.81,10.15,29.68.5,1.43.41,1.82-1.18,1.78-3.72-.09-7.45-.06-11.18,0-1,0-1.53-.16-1.53-1.36,0-13.24,0-26.49,0-39.74Z" transform="translate(-72.07 -60.34)"/><path class="cls-2" d="M78.07,139.56c4.72-13.85,9.38-27.5,14.05-41.16l.41,0v1.44c0,12.58,0,25.16,0,37.74,0,1.52-.3,2.06-1.95,2C86.55,139.47,82.48,139.56,78.07,139.56Z" transform="translate(-72.07 -60.34)"/><path class="cls-2" d="M172.83,98.42q0,19.89,0,39.77c0,1.16-.42,1.4-1.47,1.39-3.8-.05-7.59-.08-11.39,0-1.58,0-1.49-.51-1.07-1.72Q164.4,122,169.78,106.1l2.63-7.71Z" transform="translate(-72.07 -60.34)"/><path class="cls-2" d="M192.31,139.56c-4.62,0-9,0-13.31,0-1.62,0-1.12-1.14-1.12-1.92q0-17.93,0-35.85V98.55l.42,0C182.93,112.12,187.58,125.73,192.31,139.56Z" transform="translate(-72.07 -60.34)"/></svg>