<?xml version="1.0" encoding="utf-8"?>
<!-- Generator: Adobe Illustrator 23.0.3, SVG Export Plug-In . SVG Version: 6.00 Build 0)  -->
<svg version="1.1" id="Calque_1" xmlns="http://www.w3.org/2000/svg" xmlns:xlink="http://www.w3.org/1999/xlink" x="0px" y="0px"
	 viewBox="0 0 218.4 353.6" style="enable-background:new 0 0 218.4 353.6;" xml:space="preserve">
<style type="text/css">
	.st0{fill:#D1D1D1;}
	.st1{fill:#D2D2D2;}
	.st2{fill:#E4E4E4;}
	.st3{fill:#D9D8D8;}
	.st4{fill:#DFDFDF;}
	.st5{fill:#CDCDCD;}
	.st6{fill:#C5C5C5;}
	.st7{fill:#AAACAC;}
	.st8{fill:#7E7E7F;}
	.st9{fill:#828282;}
	.st10{fill:#969696;}
	.st11{fill:#999A9C;}
	.st12{fill:#ADADAD;}
	.st13{fill:#CFCECE;}
	.st14{fill:#8A8A8A;}
	.st15{fill:#565656;}
	.st16{fill:#060708;}
	.st17{fill:#484848;}
	.st18{fill:#050607;}
</style>
<g>
	<path class="st0" d="M77.1,140.4c-0.5-8.2,5.7-14.5,12.7-17.7c4.2-1.9,8.3-1.5,12.6-1.6c2-0.1,4,0,6.6,0c-1-1.4-1.7-2-2.8-2.3
		c-5.1-1.2-7.9-5.2-10.6-9.2c-0.4-0.6-0.2-1.7-0.3-2.6c1.5-0.1,1.4,1.6,2.3,2.1c1.2,1.2,2,2.6,3.2,3.8c7.4,7.8,19.7,7.5,26.8-0.6
		c0.2-0.2,0.4-0.4,0.6-0.6c6-7.1,5.4-14.3,1-21.5c-2.7-4.4-6.8-6.8-11.8-8c-2.4-1.4-4.9-1.1-7.3,0c-1.7,0.5-3.4,1.2-5.1,1.8
		c-3.8,1.3-5.7,4.4-7.5,7.7c-0.1,0.3-0.3,0.5-0.4,0.8c-1.9,3.7-2.8,7.6-1.6,11.8c0.3,0.9,0.7,1.9-0.2,2.7c-0.8-0.4-1.6-1-1.6-1.9
		c-0.6-6.5-0.1-12.6,4.6-17.9c5.1-5.8,11.2-7.8,18.7-7.2c6.1,0.5,13.6,6.7,15.4,12.6c0.7,2.2,1.5,4.2,1.7,6.6
		c0.5,5.5-1.6,10.1-4.4,14.5c-1.7,2.7-4.7,3.6-7.3,5c-1.1,0.6-2.2,1.1-3.2,2.5c1.7,0,3.5,0,5.2,0c3.2,0,6.4-0.2,9.6,0.5
		c0.8,0.2,1.6,0.2,1.8,1.1c-0.1,0.1-0.2,0.3-0.4,0.4c-1.7,1-3.4-0.1-5.1-0.1c-11.7,0-23.4,0-35,0c-1.9,0-3.3,0.9-4.9,1.7
		c-5.1,2.3-9.2,5.6-10.7,11.4c-0.8,2.7-1.2,5.5-1.2,8.3c0,13.4,0,26.9,0,40.3c0,1.3,0.2,2.7-0.5,4c-0.2,0.4-0.6,0.5-1,0.3l0,0
		c-0.7-1.1-0.6-2.2-0.6-3.4c0-13.9,0-27.7,0-41.6C76.5,142.9,76.5,141.6,77.1,140.4z"/>
	<path class="st1" d="M124.3,284.7c-0.2,0-0.4,0-0.6,0c-2.2-0.6-5.6,1.5-6.5-1.4c-1.5-5.3,0.6-10.5,4-12.4c2.4-1.3,7.8-0.3,9.6,2.2
		c2.2,2.9,1.7,6.4,1.6,9.7c0,1.3-1.6,1.9-2.9,1.9C127.8,284.7,126,284.7,124.3,284.7z"/>
	<path class="st2" d="M103.4,285.3c-2.1,0-4.1,0.1-6.2,0c-2.8-0.2-3.7-1.7-3.3-4.5c0.6-4.1,1.3-8,5.4-10.4
		c4.4-2.6,11.5,0.3,12.5,5.5c0.5,2.6-0.3,5.1,0.6,7.7c0.5,1.4-1.4,1.6-2.5,1.7C107.7,285.4,105.6,285.3,103.4,285.3
		C103.4,285.3,103.4,285.3,103.4,285.3z"/>
	<path class="st3" d="M138.7,193.8c-1.5,0.2-1.2,1.4-1.1,2.3c0.3,8.4,0,16.8-0.8,25.1c-1.1,10.9-1,21.7-1.7,32.6
		c-0.2,3.5-1.6,7-4,9.5c-4.5,4.6-12.2,2.5-14.6-3.8c0.1-0.1,0.2-0.2,0.4-0.2c0.3,0,0.6,0,0.8,0.1c0.3,0.2,0.6,0.5,0.9,0.7
		c4.3,4.5,9.4,5,13.5-1.7c0.9-2.6,1.2-5.3,1.2-8c0-4.4,0-8.7,0-13.1c0-0.9,0-1.8,0.2-2.6c0.6-3.2,0.7-6.4,0.8-9.6
		c0.2-4.2,0.8-8.3,0.9-12.5c0.6-1.7,0.5-3.5,0.4-5.2c-0.3-4.1,0.7-8.1,0.7-12.2c0-1,0.2-1.9,1.1-2.6c0.5-0.3,1-0.2,1.4,0.2
		C138.9,193.2,138.9,193.5,138.7,193.8z"/>
	<path class="st4" d="M77.1,189.1c0.2,0,0.4,0,0.6,0c1.2,0.5,1.7,2,2.9,2.5c0.2,0.1,0.5,0.3,0.7,0.5c4.3,2.8,7.7,1.4,8.6-3.5
		c0.2-1.1,0.3-2.5,2.1-1.7c0.2,0.3,0.3,0.6,0.4,0.9c0.3,1.9,0.2,3.9,0.1,5.8c-0.2,7.7,0.5,15.3,0.8,23c0.3,8.4,1.2,16.8,1,25.3
		c-0.3,2.4,0.7,4.9-0.9,7.1c-1.1-0.6-1-1.7-1.1-2.8c-1-11.1-0.3-22.2-0.6-33.3c-0.1-4.4-0.5-8.9-1-13.3c-0.1-1.4-0.9-2.8-1.5-4.1
		c-0.5-1-1.5-0.4-2.3-0.3C82.3,196.3,78,193.5,77.1,189.1z"/>
	<path class="st5" d="M116.4,259.5c-1.1-0.9-1.2-2.1-1.2-3.4c0-3.3,0-6.6,0-10.2c-1.5,1.2-1.8,2.6-1.8,4.1c0,1.4-0.1,2.7-1.1,3.8
		c-1.4-1.6-0.7-3.6-0.8-5.5c-0.1-1.6,0-3.2,0-4.8c0-0.9,0-1.8,0.2-2.7c0.6-1.9,0.4-3.9,0.3-5.8c-0.2-4.4,1.1-8.7,1.3-13
		c0-0.7,0.2-1.5,1-1.5c0.8,0,0.9,0.9,1,1.5c0.3,2.1-0.2,4.3,0.4,6.4c0.2,0.7,0.3,1.4,0.2,2.1c-0.2,7.1,0.4,14.1,0.9,21.2
		c0.1,0.3,0.2,0.7,0.2,1.1C117,254.9,117.8,257.3,116.4,259.5L116.4,259.5z"/>
	<path class="st0" d="M138.7,193.8c0-0.2,0-0.4,0-0.6c0.9-0.7,1.9-0.3,2.8-0.1c4.5,0.7,7.5-1.6,7.5-6.2c0.1-16.1,0.1-32.2-0.1-48.3
		c0-4.4-2.3-8-5.7-10.8c-1-0.8-2.1-1.4-2.4-2.8c0.1-0.2,0.1-0.3,0.2-0.5c3.8,0.4,9.5,8,9.4,12.9c-0.2,4.2,0,8.3,0.2,12.5
		c0.3,6.7-0.2,13.4-0.1,20.1c0,3.3-0.5,6.7,0.6,9.9c1.2,3.6-0.2,6.9-0.8,10.2C149.3,194.9,143.3,196.7,138.7,193.8z"/>
	<path class="st4" d="M77.1,140.4c0,16.2,0,32.5,0,48.7c-1.4-0.6-1.2-1.9-1.2-3.1c0-14.1,0-28.1,0-42.2
		C75.9,142.6,76,141.4,77.1,140.4z"/>
	<path class="st5" d="M93.5,249c0-2.4,0-4.8,0.1-7.1c0.2,0,0.3-0.1,0.5-0.1c0.3,0.2,0.5,0.5,0.6,0.8c0.6,4.8-0.1,9.8,1,14.5
		c1,3.3,3.1,5.8,6.6,6.2c3.7,0.4,6.1-1.9,7.8-5c0.6-1.1,0.7-2.4,1.5-3.4c0.3-0.2,0.5-0.2,0.8,0c1,7-5,11.2-10.6,10.6
		c-3.8-0.4-8.1-4.7-8.2-8.5C93.5,254.2,93.5,251.6,93.5,249z"/>
	<path class="st6" d="M112.3,254.8c-0.2,0-0.4,0-0.6,0c-1.6-3.4-0.5-7-0.7-10.6c0.1-0.3,0.2-0.7,0.4-0.9c0.2-0.3,0.5-0.4,0.9-0.3
		c0,3.6,0,7.1,0.1,10.7C112.3,254.1,112.3,254.4,112.3,254.8z"/>
	<path class="st0" d="M135.8,122.7c1.9,0.2,4.1-0.5,5.2,1.8c0,0-0.1,0.2-0.1,0.2c-2.3,1-3.9,0.1-5.3-1.8L135.8,122.7z"/>
	<path class="st7" d="M135.7,122.9c1.7,0.8,3.3,1.7,5.3,1.8c3,2.8,6.5,5.2,7.8,9.5c0.6,1.8,1.1,3.5,1.1,5.4c0,13.1,0.1,26.1,0,39.2
		c0,2.4,0.3,4.8,0.1,7.2c-0.7,6.9-3.8,9.2-10.4,7.3c-0.3-0.1-0.6-0.1-0.9-0.2c-0.2-0.2-0.4-0.4-0.6-0.6c-1.4-0.1-1.4,0.9-1.5,1.8
		c0,1.3,0,2.7,0,4c0,0.6,0.2,1.5-1,1.2c-1.1-5.8-1.7-11.6,1.7-16.9c3.2-4.9,3.1-10.3,2.7-15.8c-0.3-5.4-2.1-10.2-5.7-14.3
		c-1.2-1.4-2.7-3.7-0.8-5.1c1.8-1.4,2.8,1.2,3.9,2.5c1.8,2.1,2.8,4.7,4.4,6.9c2.3,5.4,3.4,11,2.8,16.8c-0.5,4.8-2.1,9.3-4.5,13.5
		c-0.6,1.2-1.8,2.4-0.3,3.6c1.5,1.2,3.2,2,5.1,1.1c2.4-1.2,3.6-3,3.6-5.8c-0.1-8.4,0-16.8,0-25.2c0-6.2,0.1-12.3,0-18.5
		c-0.1-6.2-2.5-11.3-7.3-15.2c-1.7-1.3-3.8-1.6-5.7-2.3c-2.7-1.1-5.5-1.2-8.3-1.2c-8.9-0.2-17.7-0.1-26.6,0c-2.6,0-5.2,0.3-7.7,1.2
		c-0.5,0.2-1,0.4-1.5,0.4c-0.7,0-1.4-0.1-1.9-0.7c2.2-1.6,4.5-2.3,7.3-2.3c10.3,0.1,20.6,0.1,30.9,0
		C130.3,122.2,133,122.8,135.7,122.9z"/>
	<path class="st8" d="M89.4,124.5c0.6,0,1.2,0.1,1.9,0.1c0.1,0.3,0.1,0.6-0.1,0.9c-0.8,0.9-2,1.1-3,1.8c-3.9,2.6-6.6,6.2-7.1,10.9
		c-0.3,3.3-0.9,6.6-0.8,9.9c0.3,9.1-0.5,18.2,0.5,27.2c0.3,2.7-0.7,5.4-0.5,8.2c0.1,1.8,0.2,3.5,0.9,5.2c0.9,2.1,3.1,3,4.8,2.2
		c1.8-1,1.6-2.4,0.8-4c-3.1-5.7-5-11.7-4.5-18.2c0.6-8.5,4-15.8,9.4-22.3c0.9-1.1,2.2-1.8,3.7-1.2c1.6,0.7,1.6,2.3,1.3,3.5
		c-0.8,2.9-2.1,5.6-5,7.1c-0.3-0.1-0.5-0.3-0.6-0.6c0.2-2.4,2.1-4.1,2.7-6.9c-2.7,1.8-3.5,4.5-4.8,6.7c-2.6,4.5-4,9.7-4.2,14.7
		c-0.2,5.2,1.3,10.4,4,15.1c2.2,3.9,2.3,5.4,0.4,7.1c-2.6,2.3-5.1,2.3-8.4,0l0,0c-1.5-1-2.2-2.4-2.4-4.2c-0.1-1.1-0.2-2.1-0.2-3.2
		c0.3-12.7-0.2-25.4,0-38c0.1-3.9,0.1-7.8,1.4-11.5C80.7,129.7,84.6,126.7,89.4,124.5z"/>
	<path class="st9" d="M128.7,112.2c-5.4,7.7-15,8.4-22.4,5.7c-4.2-1.5-6.8-5-9.2-8.5c-3.1-5.9-3.2-11.7,0-17.6l0,0
		c0.6-0.6,0.4-2.1,1.8-1.8c0.8,1.4-0.3,2.4-0.6,3.6c-0.1,0.3-0.2,0.5-0.3,0.8c-3,9.5,0,16.9,8.6,21.7c5.4,3,14,1.9,18.5-2.4
		c1.1-1,1.9-2.6,3.7-2.5C129.1,111.4,129,111.8,128.7,112.2z"/>
	<path class="st10" d="M128.7,112.2c0-0.4,0-0.8,0-1.1c0.2-2.8,2-5.1,2.5-8c0.9-5.4-0.7-9.9-4.1-14c-5.2-6.2-11.8-7.3-19.2-5
		c-1,0.3-2,0.8-3.1,0.2c-0.3-0.2-0.3-0.5-0.1-0.8c1.7-0.9,3.4-1.6,5.2-1.8c2.6-0.7,5.1-0.9,7.7,0c12,1.2,20.8,17.7,12.2,29.6
		C129.5,111.7,129,111.9,128.7,112.2z"/>
	<path class="st11" d="M79.4,135.2c-1.7,11.2-1.4,22.6-1,33.8c0.2,5.1-0.2,10.1-0.2,15.1c0,2.9,0.6,5.6,2.3,8
		c-1.7-0.2-2.2-1.7-2.9-3c0-15.4,0-30.7,0-46.1C77.7,140.3,77.9,137.5,79.4,135.2z"/>
	<path class="st12" d="M97,91.7c-2.4,5.9-2.4,11.7,0,17.6c-1.2-0.3-0.9-1.8-1.7-2.4c0,0,0,0,0,0c-1.2-4.1-1.6-8.3,0-12.4
		C95.6,93.5,95.8,92.3,97,91.7z"/>
	<path class="st12" d="M104.6,83.5c0,0.2,0,0.4,0,0.6c-1.4,2.5-3.4,4.4-5.9,5.9c-1,0.2-1.1,1.3-1.8,1.7
		C98.5,88,100.6,84.9,104.6,83.5z"/>
	<path class="st12" d="M117.6,81.7c-2.6,0-5.1,0-7.7,0C112.5,80.2,115,79.9,117.6,81.7z"/>
	<path class="st13" d="M103.9,284.1c-1.1,0-2.1,0-3.2,0c-0.9,0-1.7-0.2-2.4-0.8c-1.4-1.3-1.8-6.1-0.6-8.9c1.2-2.8,3.6-2.8,5.9-2.6
		c2.7,0.2,4.6,1.4,5.4,4.4c0.7,2.4-0.2,4.6,0.1,6.9c0.2,1.1-0.7,1-1.4,1C106.4,284.1,105.1,284.1,103.9,284.1z"/>
	<path class="st14" d="M91.2,155.1c0,0.2,0,0.4,0,0.7c0.8,1.5-0.1,2.8-0.6,4.2c-2.2,6.9-3.2,14,0.2,20.6c2.6,5.1,3,10.4,3.5,15.8
		c0.9,9.4,0.5,18.9,1.3,28.4c0.8,10.3,0.6,20.7,1.8,31c0.4,3.7,2.9,6,6.1,5.7c3.3-0.3,5.4-2.7,5.5-6.8c0.2-3.8,0.4-7.6,0.5-11.4
		c0.1-6.6,0.5-13.3,0.8-19.9c0.3-7.6,0.4-15.2,1.2-22.8c0.1-0.8,0.2-1.6,0.7-2.2c1.1-1.6,2.7-1.6,3.6,0.2c0.7,1.4,0.9,3,0.9,4.6
		c0.1,16.2,2.1,32.3,1.8,48.6c0,1.7,0.3,3.3,0.6,4.9c0.6,3,3,5,6,4.9c2.9-0.1,5.2-2.1,5.5-5.1c0.4-4.6,1.3-9.1,1.3-13.7
		c-0.1-8.2,0.5-16.4,0.8-24.6c0.3-9.8,1.2-19.5,1.2-29.3c0-2.3,1.2-4.1,2.2-6c4.8-8.9,4.1-17.6-0.6-26.2c-1.1-2.1-2.4-4-3.6-6.1
		c-0.9-1.6-1.6-3.4,0.1-4.8c2-1.5,3.5,0,4.8,1.4c2.2,2.4,3.9,5.1,4.8,8.3c0.1,0.7,0,1.4-0.5,2c-2.1-3.4-3.7-7.2-7.1-10.1
		c-0.8,2.2,0,3.6,1.1,4.9c5.9,6.8,6.5,14.7,5.7,23.2c-0.3,2.9-1.2,5.4-2.7,7.8c-1.6,2.6-2.6,5.3-2.3,8.5c0.2,2.6,0.1,5.3,0.1,7.9
		c0.2,0.3,0.2,0.7,0.1,1c0.3,11.2-1.6,22.2-1.6,33.3c0,0.3-0.1,0.6-0.2,0.8c0,0.8,0,1.5-0.1,2.3c-0.6,4.4-0.1,8.7-0.3,13.1
		c-0.1,3.1-0.3,6.2-1.5,9.1c-3.7,6.3-10.7,6.3-15.1,0c-1-2.3,0.2-4.8-0.6-7c0-0.2,0-0.3,0-0.5c-0.4-5.6-0.8-11.2-0.9-16.9
		c0-1.6,0.3-3.3-0.3-4.9c0-0.6,0-1.1,0-1.7c-0.4-6.7-1.3-13.3-0.9-20c0.1-1.1,0.1-2.3-0.1-3.4c-0.1-0.4-0.7,0-0.3-0.1
		c0.1,0,0.2,0,0.2,0.1c0.3,5,0.3,10-0.4,15c-0.5,3.4-0.6,6.8-1.2,10.1c-0.7,4.3,0.3,8.7-0.8,13l0,0c-0.7,2.6-0.2,5.2-0.3,7.8
		c0,2.5,0,5-0.9,7.5c-1.2,4-5.4,5.9-8.3,5.8c-2.8-0.2-6.4-3.5-7-6.4c-0.6-4.2-1-8.5-0.8-12.8c0-1,0.3-2.1-0.3-3.1l0,0
		c-0.4-0.7-0.3-1.5-0.3-2.3c-0.1-13.2-1.1-26.4-1.7-39.5c-0.2-3.5,0-7,0-10.5c0-0.9,0.3-1.9-0.3-2.8l0,0c-4-3.7-5.1-8.7-5.9-13.7
		c-0.9-5.7,0.6-11.2,3.3-16.3C89.6,156,89.8,154.9,91.2,155.1z"/>
	<path class="st7" d="M134,234.9c-0.4-11.2,1.7-22.4,1.2-33.6c0-0.3,0.3-0.7,0.5-1c0.5,4.1,0.4,8.2,0,12.3c-0.4,7-0.8,14-1.2,21
		C134.5,234,134.2,234.4,134,234.9z"/>
	<path class="st7" d="M132.2,259.4c1.4-6.6,1.3-13.3,1.3-20c0-0.8-0.2-1.6,0.5-2.2c-0.1,6.5,0.4,13-0.5,19.5
		C133.3,257.7,133.2,258.8,132.2,259.4z"/>
	<path class="st0" d="M135.8,212.6c0-4.1,0-8.2,0-12.3c0-0.2,0-0.4,0-0.6c1.1-1.7,0.4-3.6,0.6-5.3c0.2-1.7,0.1-1.7,1.8-1.7
		c-1.2,0.6-1.1,1.6-1.2,2.7c-0.2,5.1-0.9,10.2-0.6,15.3C136.4,211.4,136.4,212.1,135.8,212.6z"/>
	<path class="st6" d="M116.4,252.4c0.9,2.3,0.3,4.7,0.6,7c-0.2,0-0.4,0-0.6,0C116.4,257.1,116.4,254.7,116.4,252.4z"/>
	<path class="st11" d="M91.2,155.1c-1.5,1.3-2.2,3.2-2.8,4.9c-3.3,9-2.5,17.7,3,25.7c0.2,0.3,0.2,0.7,0.3,1.1
		c-1.4,0.1-1.2,1.1-1.1,1.9c0.4,3.3-1.9,4.5-4.3,5.3c-2.3,0.8-4.4,0.3-5.8-2c2.7,1.3,5.4,2,8.1-0.3c1.4-1.2,1.9-2.6,0.8-4.1
		c-3.8-5-4.7-11-5.7-16.9c-0.1-0.6-0.2-1.2,0-1.7c1.8-7.4,3.5-14.8,8.6-20.9c0.5-0.6,0.8-1.6,1.7-1c0.9,0.5,0.9,1.5,0.4,2.3
		C93.4,151.5,92.3,153.3,91.2,155.1z"/>
	<path class="st11" d="M91.7,186.8c0.7,0.5,0.6,1.2,0.6,1.8c0.2,7.5,0.3,15,0.6,22.4c0.4,10.3,1.5,20.5,1.1,30.9
		c-0.2,0-0.4,0-0.5-0.1c0-14.3-1.4-28.5-1.7-42.8C91.7,195,91.7,190.9,91.7,186.8z"/>
	<path class="st6" d="M112.3,230.2c0.4-8.6,1.9-17.1,2.1-25.8c0.1,8,1.2,16,0.9,24c-1.4-2.4,0-5.1-1-8c-0.4,6-1.8,11.4-1.4,17
		c0.1,1.1,0.4,2.3-0.6,3.3C111.8,237.2,111.8,233.7,112.3,230.2z"/>
	<path class="st6" d="M115.2,230.1c1.1,4.4,0.4,8.9,1,13.3c0.4,2.8,0.1,5.6,0.1,8.5c-0.5-0.4-0.6-0.9-0.6-1.5
		C115.8,243.6,114.8,236.9,115.2,230.1z"/>
	<path class="st11" d="M112.3,230.2c0,3.5,0,7,0,10.6c0,0.8,0,1.5,0,2.3c-0.2,0-0.4,0.1-0.5,0.1C112,238.8,111,234.4,112.3,230.2z"
		/>
	<path class="st11" d="M94.1,241.9c0.2,0.4,0.6,0.8,0.5,1.3c-0.2,4.9,0.5,9.8,0.6,14.6C93.6,252.6,94.2,247.2,94.1,241.9z"/>
	<path class="st11" d="M110.6,258.4c0.7-4.6,0.5-9.2,0.6-13.8c0-0.6,0.1-1.2,0.6-1.5c0,3.9,0,7.8,0,11.7
		C111.6,256.1,111.4,257.3,110.6,258.4z"/>
	<path class="st15" d="M141.1,157.4c0-0.6,0-1.2,0-1.8c1.7-0.5,2,0.8,2.4,1.8c3.6,8.8,3.9,17.6-0.5,26.3c-0.5,1-1.1,2.1-1.5,3.2
		c-0.4,1.1-1.3,2.6,0.3,3.3c1.6,0.8,3.3,0.4,4.3-1.3c0.7-1.2,1-2.6,1-3.9c0-8.5,0.5-17-0.3-25.4c-0.2-1.7-0.3-3.3,0-5
		c1-5.5,0.1-10.9-0.5-16.3c-0.8-6.7-6.3-11.6-13-12.1c-12.7-1-25.3-1.1-38-0.2c-1.4,0.1-2.9,0.4-4.2-0.7c0-0.2,0-0.4,0-0.5
		c0.4,0,0.7-0.1,1.1-0.1c2.5-1,5.1-1.1,7.7-1.1c10.9,0,21.8-0.3,32.7,0.2c1.1,0.1,2.1,0.2,3,0.9c6.1,0.7,11.4,6,12.9,13
		c0.3,1.2,0.5,2.5,0.5,3.8c0.1,15.1,0,30.1,0.1,45.2c0,2.6-1,4.4-3.3,5.8c-2.3,1.4-5.1,1.1-6.9-0.8c-1.7-1.8-0.3-3.3,0.6-4.9
		c4.4-8.1,5.6-16.5,2.9-25.4C142.1,159.8,142.6,158.2,141.1,157.4z"/>
	<path class="st8" d="M135.7,124.6c-1.6-0.4-3.2-0.6-4.9-0.6c-10.6,0-21.3-0.1-31.9,0c-2.2,0-4.4,0.4-6.7,0.6c2.2-2,5-1.5,7.4-1.5
		c9.3-0.2,18.7-0.3,28.1,0C130.4,123.1,133.5,122.3,135.7,124.6z"/>
	<path class="st16" d="M91.2,125.2c11.3-0.8,22.6-0.6,33.9-0.5c4.4,0.1,9-0.1,13,1.3c4.4,1.6,7.7,5.4,8.7,10.3
		c1.2,5.9,1.8,11.9,0.8,18c-0.4,2.7,0.3,5.4,0.3,8.1c0.1,7.3,0.1,14.7,0.1,22c0,1.4-0.3,2.9-0.7,4.3c-0.7,2.5-4.3,3.8-6.5,2.5
		c-1.2-0.7-1.5-1.8-0.8-3.3c1.2-2.2,2.1-4.5,3.2-6.8c2.4-5,2.4-10.3,1.8-15.7c-0.3-2.6-1.1-5.1-2.1-7.5c-0.4-1-0.5-2.2-1.8-2.4
		c-1.4-3.1-3-6.1-5.4-8.6c-0.9-1-2-1.9-3.3-0.9c-1.3,0.9-0.7,2.2-0.1,3.4c1.8,3.7,4.6,6.8,5.9,10.7c2.8,8.3,3.1,16.4-1.9,24
		c-1.2,1.9-1.7,3.9-1.7,6.1c-0.6,17.7-1.2,35.3-1.9,53c-0.2,4.5-0.6,8.9-1.1,13.4c-0.4,3.5-3.4,5.9-7.1,5.8
		c-3.3-0.1-6.1-2.7-6.3-6.1c-0.4-7.4-0.7-14.8-1-22.2c-0.5-10.9-0.9-21.8-1.5-32.7c-0.1-1.4,0.5-3.8-1.6-3.8c-2.1,0.1-1.6,2.4-1.7,4
		c-1,17.9-1.8,35.9-2.4,53.8c-0.1,4.2-3,6.9-6.8,6.9c-3.8,0-6.2-2.6-6.6-7c-1-11.7-1.2-23.4-1.8-35.1c-0.5-10.6-1.2-21.2-1.6-31.8
		c-0.1-3.2-2.3-5.3-3.4-8c-2.7-7-2.1-13.7,0-20.6c0.4-1.4,1-2.7,1.5-4.1c2.1-2.3,4.4-4.5,4.7-7.9c0.1-0.8,0.1-1.9-1-2.1
		c-0.9-0.2-1.8-0.1-2.4,0.7c-7.4,9.4-11.8,19.6-8.4,31.9c0.9,3.1,1.9,6.1,3.6,8.8c0.7,1,1.3,2,0.4,3.2c-1,1.3-2.5,2.3-4,1.9
		c-1.9-0.5-3.7-1.6-4.1-3.7c-0.4-1.7-0.6-3.5-0.6-5.2c0-12.5,0-25,0.1-37.4c0-4.1,0.1-8.3,1.8-12.1
		C83.2,129.7,86.5,126.5,91.2,125.2z"/>
	<path class="st17" d="M98.8,90c1.7-2.2,3.7-4.1,5.9-5.9c1.6-0.4,3.2-1,4.8-1.3c8.3-1.8,15.2,0.8,19.9,8c4.4,6.9,3.6,13.6-0.6,20.2
		c-2.4,1.6-3.9,4.3-6.7,5.5c-5.7,2.5-14.6,2.6-20.4-3.1c-5.6-5.4-7.3-13.4-3.9-20c1.2,1.6,0.8,3.4,0.5,5.1
		c-1.4,9.7,6.8,18.9,16.5,18.2c6.9-0.5,11.8-4.1,14.5-10.6c2.4-5.7,1-10.7-2.6-15.6c-5.7-7.7-13.4-7.1-19.6-4.8
		c-2.7,1-4.6,3.5-6.4,5.8c-0.8,1-1.3,2.3-2.9,2C98,92.4,98.4,91.2,98.8,90z"/>
	<path class="st18" d="M97.6,93.5c2.4-1.3,3.4-3.9,5.2-5.7c4-4,8.7-4.5,13.7-4.1c9.2,0.8,16.4,11.4,14.3,20.2
		c-1.2,5.1-4.2,9.4-9.2,11.8c-6.8,3.3-13.1,2.3-18.9-2.6c-4.8-4.1-6.3-9.1-5.2-15.1C97.8,96.5,97.6,95,97.6,93.5
		C97.6,93.5,97.6,93.5,97.6,93.5z"/>
</g>
</svg>
