<?xml version="1.0" encoding="utf-8"?>
<!-- Generator: Adobe Illustrator 23.0.3, SVG Export Plug-In . SVG Version: 6.00 Build 0)  -->
<svg version="1.1" id="Calque_1" xmlns="http://www.w3.org/2000/svg" xmlns:xlink="http://www.w3.org/1999/xlink" x="0px" y="0px"
	 viewBox="0 0 218.4 353.6" style="enable-background:new 0 0 218.4 353.6;" xml:space="preserve">
<style type="text/css">
	.st0{fill:#A7A7A9;}
	.st1{fill:#828181;}
	.st2{fill:#D6D6D6;}
	.st3{fill:#D3D3D3;}
	.st4{fill:#D9D8D8;}
	.st5{fill:#C0C0C1;}
	.st6{fill:#DCDCDC;}
	.st7{fill:#A5A5A5;}
	.st8{fill:#B4B5B6;}
	.st9{fill:#CECECE;}
	.st10{fill:#404040;}
	.st11{fill:#515152;}
	.st12{fill:#C1C2C4;}
	.st13{fill:#060707;}
	.st14{fill:#AFB0B0;}
	.st15{fill:#464646;}
	.st16{fill:#E2E3E2;}
	.st17{fill:#5D5D5D;}
</style>
<g>
	<path class="st0" d="M83.8,125.7c1-0.6,1.9-1.2,2.9-1.8c2.9-1.3,6.1-1.4,9.2-1.4c12.5-0.1,24.9-0.1,37.4,0c3.9,0,7.7,0.8,10.8,3.5
		c1.3,1.1,1.7,2.5,2.6,3.7c1,1.2,1.5,2.6,1.6,4.2c-0.3,0.2-0.7,0.1-1-0.1c-0.8-0.6-1.4-1.4-1.8-2.3c-2.5-5.1-7-6.7-12.1-6.8
		c-12.8-0.1-25.6-0.2-38.4,0c-8.5,0.2-12.3,2.9-14.6,11.7c-1.3,5-0.9,10.1-1,15.1c-0.2,11.2,0,22.5-0.1,33.7c0,2.2,0.7,4,2.4,5.4
		c2.4,1.9,6.2,0.9,7.1-2.1c0.5-1.7,0.7-3.4,0.6-5.2c0-10,0-19.9,0-29.9c0-1.9,0.2-3.7,0.7-5.5c0.5-1.9,1.8-2.8,3.7-2.6
		c1.9,0.1,3,1.3,3.1,3.2c0.1,1.3,0,2.5-0.3,3.8c-1.5,5-1.9,10.1-2,15.3c0,6.4,0,12.9,0,19.3c0,2.2-0.5,4.2-2,5.6
		c-3.7,3.2-3.6,7.4-3.2,11.6c0.9,8.1,1.7,16.3,2.8,24.4c1.1,8.4,2.4,16.8,3.6,25.2c0.3,2.1,0.9,4.2,2.5,5.8c2.6,2.4,5.4,2.3,8.3,0.6
		c0.4-0.2,0.9-0.2,1.3-0.2c0.5,0,0.9,0.3,1.2,0.6c-3.4,4.9-10.1,4.1-13.4,0c-2.8-2.7-2.4-6.4-2.9-9.7c-0.1-0.8,0-1.5,0-2.3
		c-0.3-1.9-0.6-3.7-1.4-5.4c-0.5-3.1-0.6-6.3-0.6-9.5c-0.8-6.2-1.6-12.3-2.2-18.5c-0.8-6.5-2.1-12.9-1.1-19.4
		c0.2-1.5-0.7-1.4-1.6-1.3c-3.5,0.3-6-1.3-7.8-4.1c-0.1-0.2-0.1-0.4-0.1-0.5c-0.4-0.8-0.2-1.7-0.2-2.6c0-15.7-0.1-31.4,0-47.1
		C77.7,134.4,79.5,129.5,83.8,125.7z"/>
	<path class="st1" d="M147.8,133.9c0.2,0,0.3,0,0.5,0c0,0.4,0.1,0.7,0.1,1.1c0.9,1.7,1.8,3.4,1.7,5.4c0,15.6,0,31.2,0,46.8
		c0.1,1.8,0,3.6-1.8,4.6c-2.2,1.4-4.5,2.7-7.3,1.9c-0.3-0.1-0.6-0.2-0.9-0.3c-3-1.6-4.2-4.3-4.2-7.5c-0.1-6.9,0-13.8,0.1-20.7
		c0-5.3-0.1-10.5-0.1-15.8c0-0.9-0.2-1.9-1.3-2c-1.3-0.1-1.3,0.9-1.3,1.8c0,0.3,0.1,0.7,0.1,1c0,1-0.2,2,0.1,2.9
		c2.8,9.5,1.8,19.2,1.6,28.8c-0.1,5.4,1.8,9.6,4.9,13.7c0.3,0.6,0.6,1.2,0.6,1.9c-0.3,2.5,0.2,5-0.7,7.5c-0.4,5-0.7,10.1-1.2,15.1
		c-0.8,8-2.1,16-3.1,24c-0.6,4.6-1.9,9.1-2.3,13.8c-3,6.6-9,7.9-14.3,2.9c-0.4-0.6-0.4-1.2-0.1-1.8c1.5-0.7,2.4,1.3,3.8,1
		c5.8,0.7,7.6-0.8,8.5-6.4c1.5-9.3,3.2-18.7,4.1-28.1c0.8-8.5,2.6-17,2.3-25.6c-0.1-1.9-0.4-3.6-1.8-5.1c-2.5-2.7-3.4-6.1-3.5-9.7
		c-0.1-1.6,0-3.1,0-4.7c0.1-10.1,0.2-20.3-1.7-30.3c0-0.5,0-1,0-1.5c0.3-2.5,1.4-3.7,3.6-3.8c2.2-0.1,3.9,1.3,4.3,3.6
		c0.2,1.1,0.1,2.1,0.1,3.2c0,10.8,0,21.6,0,32.5c0,1.1-0.1,2.2,0.1,3.2c0.4,2,1.3,3.5,3.5,3.7c2.3,0.2,4-0.5,5.1-2.7
		c0.6-1.3,0.8-2.8,0.8-4.3c0-6.8,0.4-13.7-0.1-20.5c-0.6-8.1-0.2-16.1-0.5-24.2C147.5,137.6,146.1,135.7,147.8,133.9z"/>
	<path class="st2" d="M102.4,285.8c-1.9,0-3.7,0.1-5.6,0c-2.9-0.2-3.8-1.8-3-4.5c0.5-2,1.1-3.9,1.4-5.9c0.4-2.8,2-4.3,4.3-5.8
		c2.2-1.4,3.7-1,5.7,0c4,2,5.6,4.9,5.1,9.5c-0.6,6.8-0.3,6.8-7.4,6.8C102.8,285.8,102.6,285.8,102.4,285.8
		C102.4,285.8,102.4,285.8,102.4,285.8z"/>
	<path class="st3" d="M125.3,285.8c-2.2-0.2-4.2,0.3-6.2-0.5c-0.6-0.3-1.3-0.4-1.6-1.1c-1.1-2.3,0.5-10.6,2.4-12.5
		c4.1-4.2,10.8-2.6,12.5,3.1c0.7,2.2,0.9,4.5,1.3,6.8c0.3,2.1-0.7,3.2-2.7,3.8C129,286,127.1,285.6,125.3,285.8z"/>
	<path class="st4" d="M119.1,260.5c1.6,0.8,2.7,2.2,4.6,2.4c3.9,0.5,6.4-0.8,8.8-4.7c2.2-8.6,3.2-17.3,4.5-26
		c0.1-0.6-0.1-1.2,0.5-1.6c0.2,0,0.3,0.1,0.5,0.1c0.8,7-1.2,13.7-2.1,20.5c-0.6,4.7-1.6,9.9-6.7,12.6c-2.3,1.3-5.9,1-8.2-0.3
		c-4.2-2.5-5.7-5.9-5.6-10.8c0.2-8.8-0.3-17.5-0.5-26.3c0-1.1,0.1-2.4-1.7-3c0,4.5-0.3,8.8-0.5,13.1c-0.3,6-0.1,12.1-0.1,18.2
		c0,1.7-0.3,3.1-2.2,3.6c-1.3-1-0.4-2.2-0.2-3.3c0.8-3.2,0.2-6.4,0.4-9.5c0-0.5,0.1-1,0.2-1.5c0.7-3.4,0.2-6.9,0.3-10.3
		c0-1.6-0.1-3.2,0.2-4.7c0.8-3.1,0.2-6.3,0.4-9.4c0.2-2.9-0.4-5.8,0.4-8.7c0.2-0.9,0.1-2.3,1.3-2.3c1.3,0,1.3,1.5,1.5,2.5
		c0.6,3,0.7,6.1,1.2,9.2c0.2,1.1,0.3,2.1,0.2,3.2c-0.4,9.3,0.7,18.5,0.7,27.8C116.9,254.4,117.7,257.6,119.1,260.5z"/>
	<path class="st5" d="M123.7,118.1c-8.7,6.1-21.7,2.3-26.7-6.7c-1.7-3.1-2.9-6.5-3-9.6c-0.2-7,2.8-13,8.8-17c1.1-0.8,2-2.3,3.8-1.9
		c0.7-0.4,1.4-0.6,2.2-0.1c0.4,1.6-1,1.7-1.9,2c-8,3.2-12.1,13.2-10.2,20.8c2,7.9,9.5,13.6,17.7,13.1c7.9-0.5,12.9-4.6,15.6-11.6
		c3.4-8.7-1.4-18.8-9.4-22.3c-0.9-0.4-2.5-0.2-2.2-2c0.8-0.5,1.5-0.3,2.2,0.1c2.5,0.5,4.5,2,6.4,3.6c1.6,1.5,2.8,3.2,3.5,5.2
		c0.6,1.5,1.2,3.1,1.8,4.6c0.2,3.4,1.2,6.7,0,10.1c-0.8,1.9-1.6,3.9-2.4,5.8C128.2,114.4,126.5,116.8,123.7,118.1z"/>
	<path class="st5" d="M146.7,129.7c-3.7-5.8-9.4-7-15.6-6.9c-9.6,0-19.1,0.1-28.7,0c-5.3-0.1-10.5,0.5-15.7,1.2
		c1.3-1.7,3.3-1.6,5-1.6c14.4-0.1,28.9,0,43.3,0c4,0,7.3,1.5,10.2,4.2C146.3,127.3,146.7,128.4,146.7,129.7z"/>
	<path class="st5" d="M83.8,125.7c-2.6,3.4-4.8,7-5.5,11.4c-0.2,1.4-0.4,2.7-0.4,4c0,16.2,0,32.3,0,48.5c-0.9-1-0.6-2.2-0.6-3.4
		c0-15.6,0-31.3,0-46.9c0-4.6,1.4-8.8,4.4-12.4C82.3,126.4,82.8,125.6,83.8,125.7z"/>
	<path class="st4" d="M147.8,191.4c1.4-0.8,1.9-2,1.8-3.5c0.2-0.3,0.3-0.6,0.6-0.8c0.2-0.1,0.4,0,0.6,0.2c0,4.4-2.7,7.5-7.2,7.6
		c-1.9,0-2.2,0.9-2.2,2.5c0.1,5.9-1.4,11.7-1.7,17.5c-0.1-0.1-0.2-0.3-0.4-0.4c0.1-3.2-0.3-6.5,0.2-9.7c0.3-2.5-0.6-5.1,0.6-7.6
		c-0.5-2.9-0.2-3.4,2.6-3.5c0.7,0,1.3,0,2-0.1C146,193.3,146.6,191.9,147.8,191.4z"/>
	<path class="st5" d="M150.7,187.3c-0.2,0-0.4,0-0.5,0c-0.6-1-0.3-2.1-0.3-3.1c0-13.8,0-27.5,0-41.3c0-1.1,0.3-2.1-0.3-3.2
		c-0.1-1.6-1.5-3-1.1-4.8c2,1.1,2.3,3,2.3,5C150.7,155.7,150.7,171.5,150.7,187.3z"/>
	<path class="st6" d="M90.8,233.7c-0.1,3.2,0.2,6.3,1.1,9.4c0.6,1.7,0.5,3.6,1.2,5.3c0.1,4.2,0.9,8.3,2.4,12.2
		c-2.4,0.2-2.4-1.8-2.9-3.3c-0.3-0.8-0.3-1.7-0.4-2.6c-0.4-7.1-3.1-13.9-2.1-21.1C90.5,233.3,90.7,233.4,90.8,233.7z"/>
	<path class="st5" d="M78,190.2c2.6,2.5,5.3,4.5,9.3,3.1c1.3-0.4,1.4,1,1,1.7c-1.8,3.1-1.2,6.5-0.8,9.7c0.4,3.3,0.9,6.7,1,10
		c0.3,0.4,0.3,0.9-0.1,1.3c-1.9-5.9-1.8-12-1.7-18.1c0-2.1-0.1-3.2-2.7-3.2C81.1,194.8,79,193.1,78,190.2z"/>
	<path class="st7" d="M110.8,255.4c0,1-1,1.9-0.4,2.9c-0.4,0.8-1.3,1.3-1.4,2.3c-0.4,0-0.8,0-1.2,0c-0.3-0.4-0.4-0.9-0.2-1.4
		c2-3.6,1.6-7.5,1.8-11.4c0.3-8.7,1-17.4,1.2-26.1c0-0.8,0.1-1.6,0.8-2.1c0.4-0.2,0.7-0.1,0.8,0.3c0,3.1,0.3,6.1-0.2,9.2
		c0,1.5,0,3.1-0.1,4.6c-0.8,3.5,0.2,7.1-0.6,10.6c0,0.4,0,0.7,0,1.1C110.5,248.6,111.6,252.1,110.8,255.4z"/>
	<path class="st4" d="M139.6,214.9c-0.3,5.3,0.7,10.8-1.8,15.8c0,0-0.2-0.1-0.2-0.1c-0.8-4,0.3-7.8,0.8-11.7c0.2-1.3-0.7-3.1,1-4.2
		L139.6,214.9z"/>
	<path class="st8" d="M88.5,216.1c0-0.4,0.1-0.8,0.1-1.3c0.6,4.2,1.3,8.3,1.6,12.5c0.2,2.1,1,4.2,0.6,6.3c-0.2,0-0.4-0.1-0.5-0.1
		C89.4,227.8,88.3,222,88.5,216.1z"/>
	<path class="st9" d="M120.8,82.8c-0.8,0-1.6,0.1-2.5,0.1c-0.1,0-0.3-0.1-0.4-0.1c-2.8-0.6-5.7-0.6-8.5,0.1c-0.1,0-0.3,0-0.4,0
		c-0.8,0-1.6-0.1-2.5-0.1c0.8-1.3,1.9-1.8,3.4-1.8c2.4,0.1,4.9,0.1,7.3,0C118.9,81,120.1,81.5,120.8,82.8z"/>
	<path class="st9" d="M132.5,106.4c0-3.4,0-6.7,0-10.1C133.2,99.7,135,103,132.5,106.4z"/>
	<path class="st9" d="M123.7,118.1c2.1-2,4.3-3.9,6.4-5.9C128.7,114.9,127,117.4,123.7,118.1z"/>
	<path class="st9" d="M130.7,91.7c-1.2-1.8-2.3-3.5-3.5-5.3C129.4,87.5,130.8,89.1,130.7,91.7z"/>
	<path class="st10" d="M147.8,133.9c1.1,16.8,1.1,33.6,1.1,50.5c0,2.6-0.1,5.1-2.6,6.7c-3.6,2.4-7.7,0.8-8.4-3.5
		c-0.3-1.7-0.1-3.5-0.1-5.3c0-10.8,0-21.7,0-32.5c0-3.1-1.6-4.6-4.2-4.2c-2.9,0.5-1.9,2.9-2.2,4.7c-2.2-1.1-2.6-3.2-0.8-5
		c2.8-2.9,7.9-1.6,9,2.3c0.2,0.8,0.3,1.5,0.2,2.3c-0.4,4.5,0.3,9-0.2,13.4c-0.7,6.9,1.1,13.9-0.3,20.7c-0.2,1.1,0.1,2.3,0.5,3.5
		c0.4,1.4,1.2,2.5,2.8,2.5c1.7,0.1,3-0.7,3.7-2.3c0.5-1.2,0.5-2.5,0.5-3.7c0-13.5,0-27,0-40.4c0-3-0.3-6-1.3-8.9
		c-2.4-6.5-7.6-8.8-13.9-8.5c-8.3,0.4-16.6-0.7-24.9-0.1c-5.3,0.4-10.7-0.5-16,0.8c-4,1-6.6,3.1-8,6.9c-0.8,2.3-1.5,4.6-1.6,7.1
		c-0.3,14-0.9,27.9-0.6,41.9c0,1.7,0.1,3.3,1,4.8c0.9,1.5,2,2.3,3.8,2.1c1.9-0.2,2.3-1.6,2.5-3.1c0.3-1.5,0.3-3.1,0.3-4.7
		c0-10.6,0-21.3,0-31.9c0-3.5,1.5-5.4,4.4-6c3.2-0.7,6.1,1.7,5.4,4.9c-2.7,12.4-2.2,25-2.1,37.5c0,3-0.6,5.8-2.7,7.8
		c-3.4,3.4-3,7.5-2.3,11.5c0.5,2.7,1.1,5.4,1.2,8.1c0.3,6.8,1.3,13.6,2.2,20.3c0.9,7,1.5,14.2,3.4,21.1c0.5,1.8,2.2,3.1,1.6,5.2
		c-0.2,0.3-0.5,0.4-0.9,0.2c-3.3-2.4-3.4-6.2-3.9-9.7c-1.4-9.3-2.6-18.7-3.8-28.1c-1-7.9-1.9-15.9-2.2-23.9
		c-0.1-2.1,0.7-3.8,2.2-5.2c2.5-2.4,3.3-5.2,3.4-8.6c0-8.5-0.4-17,0.3-25.5c0.3-3.6,1.8-7,1.8-10.6c0-1.7-0.5-2.9-2.4-3
		c-1.6-0.1-2.9,0.3-3,2.3c-0.1,1.6-0.3,3.1-0.4,4.7c0,10,0,19.9,0,29.9c0,1.7,0,3.3-0.5,4.9c-0.9,3.5-2.5,4.9-5.8,4.7
		c-2.9-0.2-5.4-2.5-5.5-5.8c-0.2-5.1-0.1-10.2-0.1-15.2c0-9,0.1-18,0-27c0-4,0.7-7.8,2.1-11.5c2.1-5.7,5.2-8.9,13.8-9
		c13.2-0.2,26.4-0.1,39.6-0.1C140.8,124,145.2,127.8,147.8,133.9z"/>
	<path class="st11" d="M111.9,219.4c-1,4.2-0.5,8.5-0.9,12.7c-0.6,6.1-0.6,12.2-0.7,18.4c-0.1,3.6-0.4,7-2.4,10
		c-0.4,0-0.7,0.1-1.1,0.1c-0.1-0.1-0.2-0.3-0.3-0.4c2.2-10.3,1.7-20.8,2.3-31.3c0.6-9.7,0.6-19.4,1.9-29.1c0.9-2.7,0.1-5.5,0.6-8.2
		c0.1-0.3,0.3-0.7,0.5-0.9c0.4-0.1,0.7-0.1,1,0.3c0.9,1.7,0.4,3.6,0.5,5.3C113.7,204.1,112.1,211.7,111.9,219.4z"/>
	<path class="st12" d="M93.4,147c1,0.7,2.4,1.4,1.9,3.1c-0.9,2.7-1.7,5.4-1.6,8.2c0,0.5-0.1,1-0.8,0.9c-0.6-0.1-1.4-0.2-1.4-0.9
		c0-3.5-0.7-7,0.4-10.4C92.2,147.5,92.6,147,93.4,147z"/>
	<path class="st11" d="M98.4,260.7c0.3-0.1,0.5-0.1,0.8-0.2c2.4-0.4,4.9-0.6,7.3-0.1c0.1,0.1,0.2,0.2,0.3,0.3
		C104,262.9,101.2,262.8,98.4,260.7z"/>
	<path class="st8" d="M93.2,248.3c-1.2-1.6-1.1-3.5-1.2-5.3C92.9,244.7,93.1,246.5,93.2,248.3z"/>
	<path class="st13" d="M106.5,260.4c-2.4,0.7-4.9,1-7.3,0.1c-3.8-6.2-3.6-13.3-4.9-20c-1.3-6.5-0.8-13.2-2.6-19.6
		c-0.7-2.5-0.2-5.2-0.5-7.9c-0.5-4.5-1.9-8.9-1.5-13.6c0.1-1.7,0.5-2.9,1.7-4.2c2.5-2.5,3.9-5.3,3.7-9c-0.3-5.2,0.3-10.4-0.2-15.5
		c-0.6-7.4,1.6-14.4,2.4-21.6c0.3-2.7-0.7-3.9-2.9-4.5c-2.2-0.7-5,1.2-5.3,3.4c-0.1,0.8,0,1.6,0,2.3c0,10.7,0,21.3,0,32
		c0,1.8-0.1,3.5-0.4,5.2c-0.3,1.6-0.5,2.8-2.3,3.1c-1.9,0.3-3.7,0.4-5-1.5c-1-1.5-1.7-3-1.7-4.9c0.1-9.4-0.5-18.8,0.2-28.1
		c0.5-6.5-0.5-13.1,1-19.5c0.9-3.7,2.1-7.4,5.8-9.4c3-1.6,6.5-2.1,9.9-2.1c8.2-0.1,16.4-0.5,24.5,0.1c5.7,0.4,11.4-0.9,17.1,0.8
		c2.6,0.8,4.4,2,5.8,4c2.6,3.6,3.7,7.7,3.7,12c0,14.5,0,28.9,0,43.4c0,3.3-1.2,5-4.1,5.5c-2.3,0.4-4-0.2-4.6-2.7
		c-0.5-2.3-0.7-4.5-0.3-6.9c0.5-2.8,0.4-5.7,0.1-8.5c-0.3-2.7-0.1-5.2,0-7.8c0.1-5.6-0.2-11.2,0.1-16.9c0.1-2.2-1.8-3.2-3.6-3.7
		c-2-0.6-3.8,0.4-4.8,2c-0.8,1.2-0.8,2.9,0.9,3.8c2.1,10.8,1.9,21.7,1.7,32.7c-0.1,4.7,0.5,9.2,4.4,12.5c1.1,0.9,1,2.2,1,3.5
		c0.3,6.1-1.1,12-1.5,18c-0.7,10.1-2.7,20.1-3.9,30.1c-0.4,3.1-0.8,6.2-1.5,9.2c-0.9,4.2-4.8,5.9-9.7,4.3c-2.3-1.5-3-3.6-3.2-6.4
		c-0.7-7.5-1.1-15.1-1.5-22.6c-0.2-5.6-0.8-11.2-0.8-16.9c0-1.9,0.2-3.9-0.2-5.8c-0.1-0.3-0.2-0.6-0.2-0.9
		c-0.3-5.1,0.2-10.1-0.7-15.2c-0.5-2.5-1.1-3-3.3-2.1c0,0.2-0.1,0.3-0.1,0.5c-0.7,2.7,0.3,5.6-0.5,8.3c-0.7,12.6-1.4,25.3-1.9,37.9
		c-0.2,5.8-0.2,11.7-0.9,17.5C108.3,257.1,107.4,258.7,106.5,260.4z"/>
	<path class="st14" d="M139.5,196.1c-4.5-4.5-5.7-9.9-5.4-16.2c0.3-7.2,0.7-14.4-0.4-21.6c-0.4-2.9-1.6-5.6-1.2-8.6
		c2.4,1,1,3.6,2.3,4.9c1.3-4.6,0.7-6-2.3-5.5c-0.7-1.5,0-2.5,1.4-2.8c1.5-0.3,2.4,0.6,2.7,2c0.2,0.9,0.1,1.7,0.1,2.6
		c0,11.2,0.1,22.3-0.1,33.5c0,3.7,0.9,6.7,4.1,8.6C139.9,193.9,140,195.2,139.5,196.1z"/>
	<path class="st15" d="M116.7,208.3c0.6,0.5,0.5,1.2,0.5,1.9c0.4,11.1,0.7,22.1,1.3,33.2c0.2,4.5,1.3,9,1.1,13.6
		c-0.1,1.7,1.8,2.2,2.3,3.6c-1.6,0.4-1.8-1.4-2.9-1.8c-0.1-0.1-0.3-0.2-0.4-0.3c-1.8-3-1.2-6.5-1.4-9.7c-0.6-9.2-1.4-18.4-1.1-27.6
		c-0.4-3.4-0.2-6.8-0.2-10.1C115.9,210.1,115.9,209.1,116.7,208.3z"/>
	<path class="st14" d="M139.5,214.8c-1,5.2-1.6,10.5-1.8,15.8c-1,6.1-1.9,12.1-2.9,18.2c-0.5,3.2-0.7,6.5-2.4,9.4
		c1-6.6,2.1-13.2,3.1-19.8c1.6-10.4,2.9-20.8,3.5-31.3c0-0.8-0.1-1.6,0.5-2.2C139.5,208.2,139.5,211.5,139.5,214.8z"/>
	<path class="st7" d="M119.1,260.5c-2.9-2.5-2.8-6.1-2.9-9.4c-0.4-10.3-0.6-20.6-0.8-30.9c0.1-0.1,0.3-0.2,0.4-0.2
		c0.4,0.1,0.5,0.3,0.6,0.7c0,0.5,0,1,0,1.5c-0.2,11.1,1,22.1,1.5,33.1c0.1,1.3,0.5,2.5,1.2,3.5c0,0,0,0,0,0
		C119.1,259.4,119.1,259.9,119.1,260.5z"/>
	<path class="st0" d="M149.5,139.8c1,1,0.5,2.2,0.6,3.3c0,14.7,0.1,29.5,0.1,44.2c-0.2,0.2-0.4,0.4-0.6,0.6
		C149.5,171.9,149.5,155.8,149.5,139.8z"/>
	<path class="st16" d="M132.5,149.2c0.6-0.8,1-1.9,2.2-1.5c1,0.4,1.3,1.3,1.3,2.4c0.1,2.3-0.1,4.6-1.2,7.5c-0.9-3-1.6-5.4-2.3-7.8
		C132.5,149.5,132.5,149.4,132.5,149.2z"/>
	<path class="st5" d="M139.5,196.1c0.6-0.9-1.7-3,1.2-3c0,0,0,0,0,0c1.5,0.9,3.2-0.2,4.7,0.6c-0.7,0.8-1.6,0.6-2.4,0.6
		c-2.3-0.2-3.2,0.8-2.9,3C139.6,197,139.5,196.6,139.5,196.1z"/>
	<path class="st14" d="M145.4,193.7c-1.6-0.3-3.3,0.6-4.7-0.6c2.6,0.5,4.9-0.3,7.1-1.7C147.2,192.4,146.4,193.2,145.4,193.7z"/>
	<path class="st7" d="M111.9,219.4c0.2-7.8,0.4-15.6,0.7-23.4c0.5-0.5,0-1.6,0.8-1.7c0.8-0.1,1,0.8,1.1,1.4c1.1,7.7,2,15.4,1.6,23.2
		c0,0.4-0.2,0.7-0.4,1.1c0,0-0.2,0.2-0.2,0.2c-1-3.7-0.6-7.6-1.9-11.4c-1.2,3.6-0.7,7.2-0.9,10.7c-0.1,0.3-0.3,0.3-0.5,0
		L111.9,219.4z"/>
	<path class="st0" d="M111.4,244.2c0.3-3.5-0.7-7.1,0.6-10.6C111.7,237.1,112.6,240.7,111.4,244.2z"/>
	<path class="st0" d="M110.8,255.4c0.3-3.3-0.7-6.8,0.6-10.1C111.2,248.7,111.9,252.1,110.8,255.4z"/>
	<path class="st0" d="M112,219.6c0.2,0,0.3,0,0.5,0c-0.2,3.2,0.5,6.4-0.5,9.5C112,225.9,112,222.7,112,219.6z"/>
	<path class="st17" d="M118.4,82.9c4.1,1.5,7.7,3.6,10.2,7.3c6.3,9.2,3.7,20.9-5.3,26.5c-9.5,5.9-22,2.1-26.3-8.5
		c-3.5-8.6-0.4-19.1,8.5-23.6c1.2-0.6,2.4-1.2,3.7-1.7c0,0,0,0,0,0C112.2,81.9,115.3,81.9,118.4,82.9L118.4,82.9z"/>
	<path class="st5" d="M118.4,82.9c-3.1,0-6.2,0-9.3,0C111,81.1,116.9,81.1,118.4,82.9z"/>
	<path class="st1" d="M115.6,220c0.2-8.4-1.1-16.7-2-25.2c-0.4,0.5-0.7,0.9-1.1,1.3c0-1.7,0.1-3.5,0.1-5.2c1.7-1.6,2.2,0,2.8,1.1
		c0.4,4.9,0.7,9.8,0.9,14.7c0.1,0.5,0.1,1,0.1,1.6c-0.2,4,0.3,8-0.3,11.9C115.9,220.1,115.7,220.1,115.6,220z"/>
	<path class="st15" d="M114.8,191.4c-0.7-0.3-1.2-1.4-2.2-0.6c-0.2,0-0.4,0-0.6,0c0.1-1,0.6-2.3,1.6-1.9c1.3,0.5,2.3,1.6,2.5,3.3
		c0.6,5.2,0.7,10.4,0.6,15.6c-0.2,0.3-0.4,0.3-0.6,0c0-0.4,0-0.8,0-1.1c-0.5-4.2-0.1-8.5-0.8-12.8
		C115.1,193.1,115.5,192.1,114.8,191.4z"/>
	<path class="st15" d="M111.4,199.6c0.2-2.8-0.5-5.6,0.5-8.3C111.7,194.1,112.6,196.9,111.4,199.6z"/>
	<path class="st11" d="M116.1,207.8c0.2,0,0.4,0,0.6,0c0,0.2,0,0.4,0,0.6c0,4.3,0,8.7-0.1,13c-0.2,0.2-0.4,0.2-0.5-0.1
		c0-0.4,0-0.8,0-1.1C116.1,216,116.1,211.9,116.1,207.8z"/>
	<path class="st1" d="M116.1,221.3c0.2,0,0.3,0.1,0.5,0.1c0,11.5,1.2,22.9,1.8,34.3c0.1,1.1,0.4,2.1,0.6,3.1
		c-1.6-0.9-1.6-2.6-1.7-4.1c-0.2-2.6-0.4-5.2-0.5-7.8C116.7,238.4,115.7,229.8,116.1,221.3z"/>
	<path class="st13" d="M96.8,100.8c0.4-9.2,7.5-17,17.5-16.7c10.3,0.4,16.5,8,16.7,17.4c0.2,7.7-7.1,17.2-17.8,16.7
		C104.6,117.7,96.7,110.3,96.8,100.8z"/>
	<path class="st11" d="M114.8,191.4c1.1,2.8,1.1,5.7,1.2,8.6c0.1,2.2,0,4.4,0,6.6C115.2,201.6,115.1,196.5,114.8,191.4z"/>
</g>
</svg>
