<?xml version="1.0" encoding="utf-8"?>
<!-- Generator: Adobe Illustrator 23.0.3, SVG Export Plug-In . SVG Version: 6.00 Build 0)  -->
<svg version="1.1" id="Calque_1" xmlns="http://www.w3.org/2000/svg" xmlns:xlink="http://www.w3.org/1999/xlink" x="0px" y="0px"
	 viewBox="0 0 218.4 353.6" style="enable-background:new 0 0 218.4 353.6;" xml:space="preserve">
<style type="text/css">
	.st0{fill:#F0F0F2;}
	.st1{fill:#E1E1E2;}
	.st2{fill:#DBDADA;}
	.st3{fill:#E1E1E1;}
	.st4{fill:#E2E2E2;}
	.st5{fill:#E3E3E3;}
	.st6{fill:#B6B6B8;}
	.st7{fill:#C7C7C6;}
	.st8{fill:#D6D6D8;}
	.st9{fill:#D5D6D8;}
	.st10{fill:#BDBCBE;}
	.st11{fill:#9D9D9D;}
	.st12{fill:#A5A5A6;}
	.st13{fill:#CECDCD;}
	.st14{fill:#CFCECE;}
	.st15{fill:#646464;}
	.st16{fill:#6D6C6C;}
	.st17{fill:#474749;}
	.st18{fill:#646465;}
	.st19{fill:#060709;}
	.st20{fill:#060708;}
</style>
<g>
	<path class="st0" d="M153.3,192.4c1.7,1.3,2.4,2.8,1,4.7c-0.3,0.4-0.5,1.1-0.3,1.4c2.2,3.1-0.3,3.1-2.2,3.9c-2.2,0.8-3.7,3-6.5,3
		c-3.3-0.1-6.6,0.4-7.8-4.4c-1.9,3.2-1.3,6-1.1,8.6c0.3,3.3,0,6.5,0,9.8c-0.2,16.1-0.4,32.2,0.1,48.3c0.1,4.3-2.2,7-3.5,10.3
		c-0.2,0.5-0.8,1.1-1.3,1.1c-3.2,0.2-5.9,1.9-8.8,2.6c-1.9,0.5-5.5-2.1-7-4.2c-2.1-3.1-3.5-3.9-6.2-1.3c-1.5,1.4-2.7,3.2-5.1,3
		c-0.3-1.3,1-1.5,1.5-2.3c2-1.7,3.1-3.9,3.5-6.4c0.6-1.6,0.6-3.3,0.6-4.9c0-19.9,0-39.9,0-59.8c0-1.1,0-2.2,0.1-3.2
		c0.2-2.2,1.1-3.5,3.6-2.9c1.9,1.3,1.5,3.3,1.5,5c0,20.4,0,40.7,0,61.1c0,2.5,0.6,4.8,1.4,7.1c0.6,1.7,1.7,3.1,3.3,3.9
		c4.3,3.2,10.8,1,12.7-4c1.3-3.5,1.5-7,1.5-10.6c0-19.5,0-39,0-58.5c0-0.5,0-1,0-1.5c0.1-1.4-0.5-3.2,1-4c1.6-0.9,2.5,1.1,3.8,1.6
		c2,2.3,4.7,1.6,7.3,1.7c3.2-0.2,5-1.8,5.7-5.1c0-0.3,0.1-0.6,0.2-0.8C152.8,194.6,152.4,193.3,153.3,192.4z"/>
	<path class="st1" d="M106.4,277.5c-0.6,0.6-1.2,1.2-1.8,1.8c-3.3,0.9-6.4,0.8-9.5-0.9c-3.6-2.1-4.6-5.2-4.6-9c0-21.7,0-43.4,0-65.1
		c0-0.7,0-1.4,0-2.1c0-0.9,0.1-1.8-1-2.2c-1-0.4-1.3,0.5-1.9,1c-2.1,1.5-4,3.4-6.8,3.3c-1.5-0.1-2.9-0.4-3.8-1.8
		c0.4-0.5,1-0.7,1.7-0.7c4.5,0.5,7.6-1.3,9.2-5.6c0.3-12.8,0-25.6,0.1-38.4c0-1.4-0.1-2.8,0.4-4.1c0.4-0.9,0.9-1.9,2.1-1.7
		c1,0.1,1.3,1.1,1.4,2c0.2,1.3,0.1,2.5,0.1,3.8c0,36.1,0,72.3,0,108.4c0,2.2,0.1,4.3,0.8,6.3c0.1,0.3,0.3,0.6,0.4,0.8
		c2.6,4.5,5.8,5.6,11.3,4c0.3-0.1,0.5-0.2,0.8-0.2C105.8,277.1,106.1,277.2,106.4,277.5z"/>
	<path class="st2" d="M81.2,126.2c7.3-3.6,15.2-1.9,22.9-2.4c1.3-0.1,3.5,0.9,3.8-0.8c0.3-1.6-2.1-1-3.2-1.6c-3.1-1.7-6-3.7-8-6.6
		c-2.4-3.4-4.2-7-5.2-11.1c0-0.2-0.2-0.4-0.2-0.6c0.5-5.4,0.8-11,5.2-15.1c0.5,0.5,0.5,1.1,0.4,1.7c-0.8,1.6-1.8,3.1-2.3,4.7
		c-1.3,3.1-0.6,6.3-0.7,9.5c2.8,12.2,12.4,18.8,24.6,17c0.7-0.1,1.4-0.2,2,0c0.3,0.1,0.5,0.3,0.7,0.6c-0.4,0.5-1.3,0.7-1.1,1.6
		c0.3,1,1.3,0.7,2,0.7c4.3,0,8.6-0.2,12.9,0.1c2.9,0.2,6.1-0.3,8.4,2.3c-0.5,0.6-1.2,0.6-2,0.6c-2.3-0.8-4.7-1-7.2-1
		c-8.3,0-16.6-0.4-24.8-0.2c-6.9,0.1-13.8-0.8-20.6,0.2c-2.7,0.4-5.1,1.2-7.3,2.8c-0.8,0.6-1.4,1.4-2.5,1.5c-1-0.1-1.1-0.6-0.5-1.3
		C79.3,127.7,80.2,126.9,81.2,126.2z"/>
	<path class="st3" d="M81.2,126.2c-1,1.2-2,2.4-2.9,3.6c-0.4,3.2-2.4,5.9-3.1,9.1c-0.3,1.3-0.8,2.6-0.8,4
		c-0.5,16.4-0.6,32.9-0.6,49.3c0,4,1,7,4.5,9.1c0.4,0.3,0.7,0.6,0.7,1.2c-0.6,0-1.3,0.1-1.9,0.1c-3.8-1.7-5.9-4.5-5.8-8.8
		c0.1-10.1-0.1-20.1,0.1-30.2c0.1-3.6,0.4-7.3-0.1-10.9c-0.9-5.9,1.3-11.4,2.2-16.9C74,131.8,77.2,128.2,81.2,126.2z"/>
	<path class="st4" d="M91.8,293.4c0.2-4.5,3.6-9,7.1-9.4c4.5-0.5,10.3,3.4,11.4,7.8c1.3,5.2-1.6,8.3-6.9,7.1c-2.1-0.5-4,0.5-6.1,0.4
		C92.7,299.1,91.6,298,91.8,293.4z"/>
	<path class="st5" d="M126.4,299.1c-2.9,0.4-5.8-1-8.9-0.4c-0.9,0.2-2.2-0.3-2.3-1.7c-0.4-5.6,0.7-10.8,7.4-12.7
		c3.8-1.1,7,0.3,9.4,2.9c2.3,2.4,2.4,5.9,1.5,9C132.6,299.7,129.4,299.2,126.4,299.1z"/>
	<path class="st6" d="M141.6,126.2c0.6,0,1.2,0,1.8,0c0,0,0,0,0,0c3.9,2,6.2,5.4,7.6,9.4l0,0c1.6,2.7,1,5.9,1.7,8.8c0,1,0,1.9,0,2.9
		c0.6,4.6,0.2,9.3,0.2,13.9c0,4.2,0.4,8.3-0.2,12.5c0,1.2,0,2.3,0,3.5c0.4,3.5,0.4,7.1,0,10.6c0,0.6,0,1.1,0,1.7
		c0.4,2.2,0.4,4.3,0,6.5c0,0.2,0,0.4,0,0.6c-0.8,3.1-2.8,5-5.8,5.9c-2.6-0.5-5.7,1.3-7.7-1.7c-0.6-1-2.9-1.2-1.4-3.2
		c0.3-0.1,0.6-0.1,1,0c0.8,0.3,1.3,0.8,1.9,1.4c1.5,1.5,3.3,2.7,5.5,1.7c2.6-1.1,4.4-2.9,4.6-5.9c0.1-1.2,0.1-2.3,0.1-3.5
		c0-14,0-27.9,0-41.9c0-2.7-0.3-5.4-0.6-8.1c-0.5-4.1-2.6-7.3-4.7-10.5C144.8,128.6,142.2,128.3,141.6,126.2z"/>
	<path class="st7" d="M96.4,89.7c0-0.6,0-1.1,0-1.7c0.4-0.8,1-1.3,1.7-1.8c3.4-4.4,7.8-6.9,13.5-6.7c1.6,0.1,3.1,0,4.7,0
		c6.7-0.2,11.8,3.4,15.7,8.1c4.5,5.4,5.2,12.1,3.6,19c-0.1,0.6-0.6,1-1,1.4c0.2,1.2-0.6,2-1.2,2.9c-0.6,0.6-0.3,2.4-2,1.6
		c-0.2-0.4-0.3-0.9-0.2-1.3c2-4,2.9-8.1,2.6-12.6c-0.1-1.6-0.4-3.1-1.3-4.4c-4.2-10.8-14.3-15.5-25.4-11.7c-2.5,0.8-4.4,2.5-6.3,4.2
		c-1.2,1.1-2.2,2.5-3.7,3.3C96.9,90,96.6,89.9,96.4,89.7z"/>
	<path class="st1" d="M134.6,108c2-7.9,1.6-15.5-4.4-21.7c-6.8-6.9-15.1-8.2-24.1-5.5c-3.1,0.9-5.4,3.4-7.9,5.3
		c1.2-3.3,6.5-6.8,10.7-7c3.4-0.1,6.8-0.2,10.2,0c2.8,0.2,5.3,1.4,7.6,3c1.8,1.2,3.9,2.4,5.2,4.1c4.5,5.9,6.5,12.5,4.4,19.9
		C136.1,107.3,135.6,107.9,134.6,108z"/>
	<path class="st8" d="M131.6,112.6c1-0.2,1.1-1.3,1.8-1.7c-1,4.9-7.4,10.4-12.2,10.6c-0.3,0-0.5-0.1-0.8-0.1
		c0.8-1.9,2.9-2.1,4.4-3.1C127.3,116.7,128.9,114,131.6,112.6z"/>
	<path class="st2" d="M152.8,173.7c0-8.8,0-17.6,0-26.4c0.6,0.5,0.5,1.2,0.5,1.9c0,7.6,0,15.1,0,22.7
		C153.3,172.5,153.4,173.2,152.8,173.7z"/>
	<path class="st2" d="M151,135.5c-2.2-3.4-4.5-6.8-7.6-9.4C146.8,126.4,150.9,131.5,151,135.5z"/>
	<path class="st2" d="M152.8,144.3c-0.9-2.9-1.4-5.8-1.7-8.8C154,138,152.3,141.4,152.8,144.3z"/>
	<path class="st2" d="M152.8,187.8c0-3.5,0-7.1,0-10.6C153.7,180.7,153.7,184.2,152.8,187.8z"/>
	<path class="st2" d="M152.8,196c0-2.2,0-4.3,0-6.5c0.9,0.9,0.4,2,0.5,3C153.1,193.6,153.8,194.9,152.8,196z"/>
	<path class="st9" d="M137.5,197.8c0,1.3,1.4,1.8,1.8,2.9c-0.2,0-0.4-0.1-0.6-0.1c-1.2-0.3-1.9-2.5-3-1.8c-1.3,0.8-0.5,2.7-0.5,4.1
		c0,21.1-0.1,42.1,0,63.2c0,3.4-1.3,6.5-2.4,9.5c-1.5,4-10,5.1-12.9,2c0.3-0.3,0.6-0.4,1.1-0.4c0.3,0,0.5,0.1,0.8,0.2
		c1.7,0.7,3.4,1,5.1,0c4.6-1.3,5.3-5.3,6.3-9.1c0.2-1.6,0.1-3.1,0.1-4.7c0-33.5,0-67,0-100.5c0-2.9,0.4-5.8,0.7-8.7
		c0.1-0.9,0.3-1.7,1.2-2.2c0.4-0.2,0.7-0.1,1,0.2c1.1,1.8,1.2,3.9,1.2,5.9c0,11.5,0,23,0,34.5c0,1.6-0.1,3.1,0.3,4.7
		C137.5,197.4,137.5,197.6,137.5,197.8z"/>
	<path class="st6" d="M121.1,277.5c-0.4,0-0.8,0-1.2,0c-4.5-2.2-5.1-6.5-5.2-10.6c-0.2-21.1-0.1-42.1-0.1-63.2
		c0-1.3,0.2-2.5-0.6-3.7c-0.2-0.4,0-0.7,0.5-0.7c2.1,0.6,2.1,2.4,2.1,4c0,6.3,0,12.7,0,19c0,14.5,0,29.1,0,43.6
		c0,4,0.3,7.9,4.1,10.3C121.1,276.6,121.1,277.1,121.1,277.5z"/>
	<path class="st10" d="M114,199.5c0,0.2,0,0.4,0,0.6c-2.7-0.4-3,1.2-3,3.3c0.1,21.1,0,42.2,0.1,63.2c0,1.8,0,3.5-1.1,5
		c-0.1-0.1-0.3-0.3-0.4-0.4c-0.6-1.2-0.5-2.5-0.5-3.7c0-21.2,0-42.3,0-63.5c0-0.7,0-1.4,0.1-2C109.5,199,111.1,198.2,114,199.5z"/>
	<path class="st2" d="M146.9,202.4c2.6-1.3,4.6-3.2,5.8-5.9C152.5,199.7,150.1,202.2,146.9,202.4z"/>
	<path class="st10" d="M106.4,277.5c-0.4,0-0.8,0-1.2,0c1-2.4,2.7-4.2,4.6-5.9c0,0,0.2,0.1,0.2,0.1C110,274.3,108.4,276,106.4,277.5
		z"/>
	<path class="st11" d="M109.9,271.6c-0.9,2.4-2.8,4.2-4.6,5.9c0,0,0,0,0,0c-5,1.9-9.1,0.9-12.3-3.5l0,0c-1.3-2.2-1.5-4.6-1.5-7
		c0-36.9,0-73.8,0-110.7c0-0.7,0-1.4,0-2c0-0.9,0.1-2-1-2.2c-1.2-0.2-1.6,0.9-1.9,1.9c-0.3,0.8-0.1,1.7-0.1,2.6c0,12.5,0,25,0,37.5
		c0,1.1,0.3,2.1-0.3,3.2c-1.7,4.2-4.9,5.7-9.3,5.2c-3.9-1.9-6.1-4.7-6-9.4c0.2-10,0-19.9,0.1-29.9c0.1-6.9,0.1-13.8,0.6-20.7
		c0.3-4.6,2.1-8.8,4.6-12.7c2-0.2,2.7-2.3,4.5-3.1c5.6-2.5,11.5-2.1,17.3-1.9c5.3,0.2,10.5-0.1,15.7,0.1c7.4,0.2,14.8,0.1,22.2,0.3
		c1.2,0,2.4,0.7,3.6,1.1c1.3,1.3,3.4,1.6,4.1,3.6c-0.7,0.4-1.3,0.2-1.9-0.2c-3.9-2.7-8.3-3.1-12.9-3.1c-12.1,0-24.2,0-36.4,0
		c-2.5,0-4.8,0.5-7.2,0.8c-6.8,1-9.4,6-11.1,11.8c-0.4,1.5-0.7,3-0.7,4.6c0,4.5-0.1,9,0,13.5c0.2,8.1-0.3,16.2-0.6,24.3
		c-0.2,4.7,0.6,9.3,0.7,14c0,2.2,2.2,4.6,4.3,4.9c2.4,0.4,4.9-1,6.2-3.5c0.7-1.4,0.7-3,0.7-4.6c0-12,0-24,0-36.1
		c0-1.2-0.1-2.4,0.2-3.5c0.5-1.6,1.2-3,3.1-2.9c1.8,0.1,2.8,1.3,3.3,2.9c0.3,1,0.2,2.1,0.2,3.2c0,34.8,0,69.6,0,104.4
		c0,3.1-0.8,6.1-0.1,9.3c1.2,6,5.7,8.4,11.2,5.6c3-1.9,3.7-4.8,3.7-8.1c0-20.9,0-41.8,0-62.7c0-1.2-0.1-2.4,0.1-3.5
		c0.4-2.2,1.8-3.5,4-3.6c2.2-0.1,3.7,1,4.4,3.2c0.3,1.1,0.2,2.3,0.2,3.5c0,20.4,0,40.8,0,61.2c0,3-0.2,6.1,2,8.5
		c1.9,2.1,4.2,2.9,6.9,2.2c2.7-0.7,4.7-2.3,4.9-5.4c0-0.4,0.2-0.7,0.4-1.1c0.8-1.5,0.5-3.1,0.5-4.6c0-35.9,0-71.7,0-107.6
		c0-1.3,0-2.5,0.1-3.8c0.1-1.9,0.9-3.3,2.9-3.4c1.9,0,3,1.4,3.2,3.2c0.3,1.8,0.5,3.7,0.4,5.5c-0.5,10.7,0,21.5-0.3,32.2
		c0,2.3,1.6,4.6-0.2,6.8c-0.2,0-0.4,0.1-0.7,0.1c0,0,0,0,0,0c-0.8-1.4-0.8-3-0.8-4.5c0-12.1,0-24.3,0-36.4c0-1.7,0-3.3-0.9-4.8l0,0
		c-1.5,0-1.7,1.1-1.7,2.2c0,2.2-0.4,4.5-0.4,6.7c0,35.1,0,70.1,0,105.2c0,1.1,0.2,2.1-0.3,3.2c-0.4,1.7-0.6,3.5-1.4,4.9
		c-1,2-2.9,3.2-5.1,3.8c-2,0.7-3.9,0.3-5.8-0.5c0,0,0,0,0,0c-4.4-2.2-5.3-6.1-5.3-10.5c0-21.2,0-42.4,0-63.6c0-1.6,0.1-3.2-1.8-3.9
		c-4.1,0-4.1,0-4.1,4C109.9,226.2,109.9,248.9,109.9,271.6z"/>
	<path class="st10" d="M88.2,197.1c0-14,0-27.9,0-41.9c0-0.9,0-1.8,0.3-2.6c0.3-0.7,0.9-1.3,1.8-1.2c0.9,0.1,1.3,0.8,1.3,1.7
		c0,1,0,2,0,2.9c0,36,0,72-0.1,108.1c0,3.3,0.3,6.6,1.2,9.8c-1.9-1.7-1.7-4-1.7-6.2c0-28,0-56,0-84c0-9.1,0.1-18.2,0-27.2
		c0-1.4,1-3.8-1-3.9c-1.5-0.1-1.3,2.4-1.3,4c0,12.5,0,25-0.1,37.5C88.8,195.1,89.2,196.3,88.2,197.1z"/>
	<path class="st10" d="M92.9,274c3.4,3.8,7.5,4.9,12.3,3.5C100.1,280.2,95,278.7,92.9,274z"/>
	<path class="st12" d="M131.6,112.6c-2.8,4.1-6.7,6.9-11.2,8.8c-6.5,1.3-12.6,0.8-18.3-3.2c-4.9-3.4-7.5-8.2-9.1-13.7
		c0.7-3.5-0.4-7.2,1.1-10.6c0.4-1.6,1-3.1,2.3-4.2c0.2,0,0.4,0,0.6,0.1c0.8,1.2-0.1,2.1-0.6,3.1c-0.6,1.1-0.9,2.3-1.1,3.5
		c0,0.3-0.1,0.6-0.2,0.9c-0.4,2.5-0.4,5.1,0,7.6c2.1,7.4,6.4,12.8,14.2,14.9c7.1,1.9,15.1-0.7,19.6-6.6c0.5-0.7,0.9-1.5,1.9-1.8
		c0.3,0,0.6,0,0.8,0.3C131.6,111.9,131.6,112.3,131.6,112.6z"/>
	<path class="st7" d="M94.1,93.9c-1.1,3.5-0.1,7.1-1.1,10.6C93.2,101,92,97.3,94.1,93.9z"/>
	<path class="st13" d="M107.6,293.4c-0.1,1.9-0.3,3.7-2.5,3.4c-2.5-0.4-5,0.1-7.4,0c-2.9,0-3.9-1.6-3.2-4.4c0.6-2.4,2.1-4,3.9-5.3
		c2.3-1.6,4.3,0.1,6.2,1C106.8,289.1,107.5,291.4,107.6,293.4z"/>
	<path class="st14" d="M131.1,292.8c0,3.2-2.9,5.1-6.4,4.5c-1.3-0.2-2.5-0.4-3.7-0.5c-2.5-0.1-3.6-1.9-3.3-4
		c0.4-2.8,1.6-5.4,4.7-6.3c2.8-0.8,5.3,0,7.3,1.9C131,289.6,131,291.6,131.1,292.8z"/>
	<path class="st15" d="M138.1,197.7c-0.9-13.1-0.6-26.1-0.3-39.2c0-1.6-0.2-3.3-0.3-5c-0.1-1.7-0.9-3-2.5-3c-1.8,0-2.3,1.4-2.3,3.1
		c0,14.8,0,29.7,0,44.5c0,22.4,0,44.7,0,67.1c0,1.5,0.5,3.1-0.6,4.5c-1-1-0.8-2.4-0.8-3.6c0-37.3,0-74.6,0-111.9c0-0.2,0-0.4,0-0.6
		c0-2.1,0.3-4,2.6-4.7c2.3-0.6,4,0.4,5,2.5c0.6,1.5,0.5,3.1,0.5,4.6c0,10.5,0,20.9,0,31.4c0,2.6,0.2,5.1,0.8,7.6
		c0.5,2.4,2.4,4,4.5,3.8c2.4-0.2,3.6-1.7,4.1-3.9c0.4-2.2,0.6-4.4,0.6-6.7c0-11.7,0-23.4,0-35.2c0-4.6-0.5-9.2-1.3-13.7
		c-1.3-7.1-5.7-10.9-12.9-11.2c-5.2-0.2-10.4,0.2-15.5-0.1c-9-0.6-17.9,0.4-26.9,0.1c-10-0.4-13.5,3.3-15.9,13.1
		c-0.5,2-0.7,4-0.7,6.1c0,15,0,30.1,0,45.1c0,1.4-0.1,2.7,0.5,4c2.2,3.5,3.8,4.1,6.4,2.3c0.7-0.9,1.6-1.5,2.2-2.4c0.8-2,1-4.2,1-6.3
		c0-12.1-0.1-24.2,0-36.3c0-3.6,1.6-5.2,4.7-4.8c1.9,0.2,3,1.2,3.3,3.1c0.2,1.4,0.1,2.7,0.1,4.1c0,36.3,0,72.6,0,109
		c0,2.5,0.1,4.9,1,7.2c0.3,0.4,0.6,0.8,0.9,1.2c1.5,2.1,3.7,2.2,6,2.1c1-0.1,2.1-0.7,3,0.2c-5.3,3.3-11.3,0.6-12.4-5.5
		c-0.6-3.1-0.1-6.2-0.1-9.3c0-35.1,0-70.2,0-105.3c0-0.2,0-0.4,0-0.6c0.1-2.2,0-4.7-2.6-4.7c-2.8,0-2.6,2.6-2.6,4.7
		c0,12.8,0,25.6-0.1,38.4c0,5-3.1,8.1-7.4,7.8c-2.6-0.2-5.3-2.9-5.5-5.6c-1-17.9-0.6-35.8,0.4-53.6c0.6-11.8,5.3-16,18.2-16.4
		c13.5-0.4,27-0.2,40.5,0c4.4,0,8.4,1.4,11.9,4.1c4,4.5,5.7,10,5.8,15.8c0.2,16,0.1,32,0.1,48c0,2.3-0.5,4.4-2.3,6.1
		c-3.3,3-6.3,2.9-9.5-0.3C139.3,198.7,138.7,198.2,138.1,197.7z"/>
	<path class="st16" d="M94.7,96.3c-0.2-2.5,2-4.2,2.3-6.5c4.7-6.3,10.8-9.9,18.9-9.3c7.1,0.5,16.5,7.3,16.9,13.4
		c-0.1,0.1-0.2,0.2-0.3,0.3c-0.3,0.1-0.6,0.1-0.9-0.1c-1.3-0.9-1.8-2.3-2.5-3.6c-5.3-9.3-24.8-11.8-31.5,2.7
		c-0.6,1.2-0.9,2.6-2.2,3.3C95.2,96.6,94.9,96.5,94.7,96.3z"/>
	<path class="st16" d="M131.6,111.5c-0.2,0-0.4-0.1-0.6-0.1c-0.8-1.4,0.6-2.2,0.7-3.4c0.1-0.3,0.2-0.6,0.3-0.8
		c1.4-3.7,1.7-7.4,0.6-11.2c-0.2-0.6-0.3-1.3,0.1-1.9c0,0,0.1-0.2,0.1-0.2c3,3.1,1.7,6.9,1.5,10.5
		C134.3,106.9,133.2,109.3,131.6,111.5z"/>
	<path class="st6" d="M133.4,269.3c0-38.1,0-76.2,0-114.4c0-1.6-0.2-3.3,2.3-2.9c-2,2.7-1.7,5.8-1.7,8.8c-0.1,34.8,0,69.7-0.1,104.5
		C134,266.7,134.4,268.1,133.4,269.3z"/>
	<path class="st6" d="M135.7,152c1.6,0.7,1.2,2.1,1.2,3.3c0,10.7,0,21.4,0,32.1c0,3.5-0.2,7,0.5,10.4c-1.4-0.8-1.1-2.2-1.1-3.4
		c0-10.2,0-20.5,0-30.7C136.3,159.7,136.5,155.8,135.7,152z"/>
	<path class="st6" d="M121.1,277.5c1.9,0.3,3.8,0.8,5.8,0.5C124.8,279.2,122.9,279,121.1,277.5z"/>
	<path class="st17" d="M138.7,152c-0.4-0.5-0.8-1.1-1.3-1.6c-1-1.1-2.3-1-3.5-0.6c-1.1,0.4-1.6,1.3-1.6,2.5c0,0.9,0,1.8,0,2.6
		c0,38.3,0,76.5,0,114.8c-1.6,5.6-3.9,7.6-8.5,7.1c-3.6-0.4-6.1-2.8-6.8-6.5c-0.4-2-0.5-4.1-0.5-6.1c0-20.4,0-40.8,0-61.3
		c0-0.6,0-1.2,0-1.8c-0.1-2.3-1.5-3.4-3.6-3.4c-2.1,0-3.5,1.1-3.5,3.4c0,6,0,11.9,0,17.9c0,15.9,0,31.9,0.1,47.8
		c0,3.7-0.8,6.7-4.1,8.8c-1.8,0.1-3.5,0.8-5.4,0.6c-1.7-0.2-3.1-0.8-4-2.4c0.9-0.6,1.7-0.1,2.5,0.1c5.3,1.3,9.3-1.9,9.3-7.4
		c0.2-21.7,0.1-43.4,0.2-65.1c0-4.3,1.1-5.7,4.4-5.9c3.9-0.3,6.1,1.5,6.6,5.4c0.2,1.3,0.2,2.5,0.1,3.8c-0.1,18.9,0.2,37.7-0.2,56.6
		c-0.1,2.9-0.5,5.8,0.3,8.7c1,3.4,2.2,4.3,6,4.2c2.7-0.1,4.2-1.5,4.8-4.6c1-5.2,0.4-10.5,0.6-15.8c0.6-16.2-0.8-32.4-0.5-48.6
		c0.1-8.4,0.3-16.8,0.2-25.2c-0.1-8.1-0.3-16.2-0.2-24.3c0-1.6,0-3.1,0.5-4.6c1-2.7,3.8-4,6.4-2.8
		C138.5,149.2,139.7,150.2,138.7,152z"/>
	<path class="st18" d="M132.2,107.9c0.5,1.4-1,2.2-1.1,3.5c-5.1,9-15.6,11.3-23.7,8.4c-6.9-2.5-11-7.6-12.6-14.7
		c-0.5-2.8-0.4-5.6,0-8.4c0-0.2,0-0.3,0.1-0.5c0.2,0,0.4,0,0.6,0c1.1,1.4,0.8,3,0.7,4.5c-0.6,6.4,5.4,15.4,12.1,17.3
		c7.8,2.2,15.7,0.4,20.5-6.5C129.6,110.2,130,108.1,132.2,107.9z"/>
	<path class="st16" d="M94.6,96.7c0,2.8,0,5.6,0,8.4C93.8,102.3,93.9,99.5,94.6,96.7z"/>
	<path class="st19" d="M138.7,152c0.1-2-0.9-2.9-2.8-3c-2-0.1-3.7,0.1-4.4,2.4c-0.4,1.4-0.4,2.7-0.4,4c0.1,4.9-0.2,9.7,0.4,14.6
		c0.3,2.3-0.4,4.6-0.4,7c0.1,5.5,0.8,11.1,0.4,16.6c-0.7,9.6-0.6,19.1-0.3,28.7c0.4,11.1,0.5,22.2,0.3,33.3
		c-0.1,4.6,0.5,9.3-0.3,13.9c-0.6,3.6-2.5,5.9-5.5,6c-4.7,0.1-6.2-1.1-7.4-5.2c-1-3.4-0.4-6.8-0.3-10.1c0.6-19.3,0.1-38.7,0.2-58
		c0-3.8-1.4-5.6-4.3-5.7c-4.4-0.2-5.1,0.4-5.1,4.9c0,18.7,0,37.3,0,56c0,3.3-0.2,6.6-0.2,9.8c0,5.6-4.8,10.9-11.8,6.9
		c-0.2-0.1-0.6-0.1-0.8-0.2c-0.2-0.2-0.4-0.4-0.6-0.6c-1.2-2-1.4-4.3-1.4-6.5c0-22.8,0-45.5,0-68.3c0-15.3,0-30.7-0.1-46
		c0-2.2-0.8-3.3-3.1-3.3c-2.7,0-3.9,0.7-4.2,2.9c-0.1,0.9,0,1.8,0,2.6c0,12.1,0,24.2,0,36.4c0,2.2,0.3,4.5-1.2,6.5
		c-0.6,0.6-1.2,1.2-1.7,1.7c-2.9,1.9-4.9-0.3-7-1.7c-1.3-0.7-1.2-1.9-1.2-3.1c0-16.2,0-32.4,0.1-48.6c0.1-5.8,1.6-11.3,5.9-15.7
		c2.4-2.5,5.6-2.8,8.6-2.9c15.3-0.5,30.6-0.3,45.9-0.1c6.8,0.1,11.5,4.1,13,10.8c1,4.6,1.5,9.2,1.5,13.9c0.1,11.8,0,23.6,0,35.4
		c0,2.5-0.2,5.1-0.5,7.6c-0.3,2.5-2.5,4.9-4.9,5c-2.9,0.1-5.3-2-5.7-4.8c-0.7-4.3-0.5-8.6-0.5-12.8
		C138.7,172.3,138.7,162.1,138.7,152z"/>
	<path class="st17" d="M85.2,197.7c0.6-1.5,0.7-3,0.7-4.6c0-13.1,0-26.2,0-39.2c0-3.3,1.1-4.7,3.7-4.9c3.7-0.2,4.5,0.6,4.5,4.3
		c0,13.7,0,27.3,0,41c0,23.1,0,46.2,0,69.3c0,3.3,0.5,6.6,1.2,9.8c-2.1-2.3-1.8-5.2-1.8-7.9c0-37.1,0-74.2,0-111.3
		c0-1.7,0.4-3.7-1.9-4.4c-2.7-0.9-4.6,0.5-4.6,3.5c0,12.4,0,24.8,0,37.2c0,1.9-0.3,3.7-0.6,5.5C86.4,196.7,86.1,197.4,85.2,197.7z"
		/>
	<path class="st17" d="M76.5,197.7c2.3,0.6,4.3,2.5,7,1.7C81.3,201.5,79.1,201,76.5,197.7z"/>
	<path class="st20" d="M132.2,107.9c-1.2,1.7-2.5,3.4-3.7,5.2c-4.7,6.4-14.9,8.6-22.4,4.8c-7.3-3.7-11-9.8-10.8-18.1
		c0-1.2,0-2.3,0.1-3.5c1.3-1.9,2.1-4.1,3.3-6.1c6.5-11.3,27.5-10.9,32.9,3.2c0.1,0.3,0.3,0.5,0.5,0.7c1.9,3.4,2.4,6.9,1,10.6
		C132.6,105.7,132.7,106.9,132.2,107.9C132.2,108,132.2,107.9,132.2,107.9z"/>
	<path class="st18" d="M132.2,108c0-0.8-0.2-1.7,0.1-2.3c2-4,0.9-7.8-0.3-11.6c0.3,0,0.5,0,0.8-0.1
		C134.5,98.7,134.9,103.4,132.2,108z"/>
</g>
</svg>
