<?xml version="1.0" encoding="utf-8"?>
<!-- Generator: Adobe Illustrator 23.0.3, SVG Export Plug-In . SVG Version: 6.00 Build 0)  -->
<svg version="1.1" id="Calque_1" xmlns="http://www.w3.org/2000/svg" xmlns:xlink="http://www.w3.org/1999/xlink" x="0px" y="0px"
	 viewBox="0 0 218.4 353.6" style="enable-background:new 0 0 218.4 353.6;" xml:space="preserve">
<style type="text/css">
	.st0{fill:#DBDADA;}
	.st1{fill:#E4E4E4;}
	.st2{fill:#E6E6E6;}
	.st3{fill:#E4E3E6;}
	.st4{fill:#727172;}
	.st5{fill:#A5A4A4;}
	.st6{fill:#CFCFCF;}
	.st7{fill:#060708;}
	.st8{fill:#555556;}
	.st9{fill:#4A4A4B;}
	.st10{fill:#050606;}
	.st11{fill:#535353;}
	.st12{fill:#515151;}
</style>
<path class="st0" d="M96.4,109.5c-2.2-1.2-2.9-3.1-3-5.6c-0.6-8.5,2.9-15.1,9.6-20c2.6-1.8,5.5-3.3,8.9-3.2
	c4.4,0.2,8.8-0.5,13.1,1.7c5.3,2.7,13.2,10.8,11.9,17.5c-0.6,3.2,0.5,6.6-1.2,9.7c-2.7,5.1-6.3,9.4-11.8,11.6
	c-1.8,0.7-3.7,1.3-5.7,2.1c1.1,1.1,2.1,0.7,3,0.7c4,0.1,8,0,12,0c5.9,0,8.6,2.9,11,8.2c2.4,5.1,2,10.2,2,15.4
	c0.1,10.8-0.1,21.7,0.1,32.5c0.1,4.3,0,8.5-0.1,12.8c-0.1,6-4,8.7-10,7.4c-3.4-2-4.6-4.9-4.5-9c0.3-11.9,0.1-23.8,0.1-35.7
	c0-0.9,0.3-1.9-0.3-2.7c0.7,0.9,0.3,1.9,0.3,2.8c0,12.5,0.1,25,0,37.5c0,2,1.3,4-0.2,6c0,18.5,0,37.1,0,55.6c0.5,1.6,0.8,3.2,0,4.8
	c0,2.9,0,5.8-0.1,8.7c-0.7,1.4-1.5,2.7-2.9,3.5c-0.8,0.4-1.4,1-1.8,1.7c-3.5,2.3-6.3,0.9-8.8-1.7l0,0c-3.9-2.8-4.2-6.6-4.2-11.1
	c0.2-15.3,0.1-30.7,0.1-46c0-4.2,0.2-8.4,0-10.9c0.2,2.3-0.1,6.3-0.1,10.3c0.1,13,0.1,26,0,39c0,3.2-0.1,6.4-0.1,9.6
	c0,4.8-1.9,8.2-5.7,10.8l0,0c-2.4,0.6-4.9,2.3-7.3,0c-1.7-1.7-4-3.1-4.4-5.8c0-1,0-1.9-0.1-2.9c-0.7-3.9-0.8-7.9,0-11.8
	c0-9.2,0-18.3,0-27.5c-0.7-1.3-0.6-2.7-0.5-4c0.2-5.5-0.6-11.1,0.5-16.6c0-0.4,0-0.7,0-1.1c-1.1-3.6-0.3-7.3-0.3-11
	c0.1-12.5,0-25,0.1-37.4c0-0.9-0.4-1.9,0.7-3.2c-1.1,1-0.7,1.8-0.7,2.5c0,12.2-0.2,24.4,0.1,36.6c0.1,4.1-1.2,6.9-4.5,9.1
	c-0.9,0-1.7,0-2.6,0.1c-4.8,0.7-7.6-1.7-7.4-6.6c-0.9-2.1-0.9-4.4-0.9-6.6c0.3-9.1,0.1-18.2,0.4-27.3c0.1-4,0-8.2-0.2-12.2
	c0-1.3,0-2.5,0.6-3.7c-0.3-5.7,1-11.1,4.2-15.8c1.8-2.7,4.7-3.9,7.9-4.1c6-0.2,12.1-0.1,18.1-0.1c0.9,0,1.9,0.2,3.6-0.7
	c-3.1-0.3-5.5-0.9-7.9-1.5C102.3,120.6,96.3,114.3,96.4,109.5c1.2-0.1,1.4,1,1.7,1.7c3.1,6,8.2,9.3,14.8,10
	c5.8,0.6,11.1-0.8,15.5-5.1c5.5-5.3,8-11.7,5.9-19c-2.6-9.3-7.8-13.4-16.2-14.7c-8.4-1.3-15.7,1.8-19.8,9.4c-2.3,4.4-4.6,9.6-1.8,15
	C97,107.7,97.1,108.7,96.4,109.5z"/>
<path class="st1" d="M108.1,273.8c1.8-2.3,4.1-4.2,4.6-7.6c0.2-1.7,0.6-3.6,0.6-5.3c0.2-15.8,0.3-31.5,0-47.3
	c-0.1-4,0.9-8.1-0.4-12.1c-0.3-0.9,0.1-1.9,1.1-2.6c1,1,0.5,2.2,0.5,3.3c0,19.7,0.1,39.4-0.1,59.2c0,4.2,0.9,7.6,3.6,10.7
	c-2-0.3-2.6-2.1-4.1-3.5C112.4,270.9,110.7,273,108.1,273.8z"/>
<path class="st2" d="M123.3,290.2c-1.3,0-2.5,0-3.8,0c-1.7,0-3.7,0.1-4.2-1.8c-0.5-1.9-0.7-3.9,1-5.7c4-4.3,6-4.8,11-3.2
	c2.4,0.8,2.3,2.6,3,4.2c2.5,6.1,2.2,6.5-4.3,6.5C125.1,290.2,124.2,290.2,123.3,290.2z"/>
<path class="st2" d="M104.5,290.2c-0.4,0-0.8,0-1.2,0c-7.1,0-8.1-1.4-5.8-8.1c0.9-2.6,6.2-4.5,8.8-3c1.5,0.9,2.8,2.1,4.2,3.2
	c2.3,1.9,1.5,4.5,1.2,6.4c-0.2,1.8-2.8,1.5-4.6,1.5C106.3,290.2,105.4,290.2,104.5,290.2z"/>
<path class="st1" d="M81.7,144.2c0,16.6,0,33.2,0,49.9c-1.8-1.9-2.2-4.4-1.8-6.6c0.5-2.5,0.7-4.9,0.2-7.5c-0.4-1.8-0.3-3.7-0.1-5.5
	c1.2-8.8,0.4-17.6,0.5-26.5C80.5,146.5,80.5,145.2,81.7,144.2z"/>
<path class="st1" d="M91.6,200.5c3.7-3.2,4.3-7.3,4.2-12.1c-0.3-11-0.1-22.1-0.1-33.1c0-1,0-1.9,0.5-2.9c0,17.2,0,34.4,0,51.6
	c-0.2-0.5-0.6-1-0.7-1.6C95.4,199.5,94.3,198.6,91.6,200.5z"/>
<path class="st3" d="M131.6,199.4c0-15.4,0-30.8,0-46.6c0.8,1.1,0.5,2,0.5,2.9c0,10.9,0.2,21.9,0,32.8c-0.1,4.7,0.1,8.9,4.2,12
	C134.6,200.4,133.6,197.9,131.6,199.4z"/>
<path class="st1" d="M96.3,205.1c0,6.9,0,13.8,0,20.6c-1-0.6-1.1-1.5-1.1-2.5c0-4.9,0-9.7,0-14.6C95.2,207.4,95.5,206.2,96.3,205.1z
	"/>
<path class="st1" d="M96.3,267.9c2.6,4.6,5.9,7.8,11.7,5.9C102.6,276.6,96.7,273.7,96.3,267.9z"/>
<path class="st1" d="M96.3,253.2c0,3.9,0,7.9,0,11.8C94.9,261.1,94.5,257.2,96.3,253.2z"/>
<path class="st1" d="M118,272.1c0.2,0,0.5,0,0.6,0.1c2.3,2.7,5.2,2.3,8.2,1.6C123.7,276.8,121.6,276.4,118,272.1z"/>
<path class="st1" d="M128.6,272c0.9-1.2,1.4-2.8,2.9-3.5C132,270.9,130.7,271.8,128.6,272z"/>
<path class="st1" d="M131.6,259.8c0-1.6,0-3.2,0-4.8C132.8,256.6,133.5,258.2,131.6,259.8z"/>
<path class="st4" d="M116.2,232.7c0-10.7,0-21.3,0-32c0-0.7,0-1.4-0.1-2c-0.3-1.3-1.2-1.9-2.6-1.9c-1.3,0-1.6,1-1.8,2
	c-0.1,1.2-0.1,2.3-0.1,3.5c0,19.9,0,39.9,0,59.8c0,2.5,0,4.9-1.6,7.3c-1.7,2.6-3.8,3.9-6.8,3.6c-2.2-0.2-5.4-4-5.8-6.5
	c-0.3-2-0.4-4.1-0.4-6.1c0-16.4,0-32.8,0-49.3c0-17.7,0-35.3,0-53c0-1.8,0.2-3.5,0.2-5.3c0-1-0.3-2.4-1.3-2.3
	c-1.1,0.1-1.8,1.1-1.8,2.6c0.1,10.4,0.2,20.9,0.2,31.4c0,3.2-0.3,6.4-0.5,9.6c-0.2,3.1-2.6,5.3-5.5,5.2c-3.2,0-5.5-2.2-5.7-5.4
	c-0.9-18.2-0.4-36.3,0.4-54.5c0.3-8,4.8-14.3,14.6-14.2c11.3,0.1,22.7,0,34,0.1c5.1,0,8.7,2.6,10.7,7.2c2.1,4.7,2.9,9.7,2.9,14.8
	c0,14.5,0,28.9,0,43.4c0,4.5-2.2,7.8-5.3,8.4c-3.7,0.7-6.8-2.3-6.9-6.8c-0.1-7.2-0.1-14.5-0.1-21.7c0-5.5,0-10.9,0-16.4
	c0-0.5,0-1,0-1.5c-0.1-0.9-0.4-1.9-1.4-1.9c-0.9,0.1-1.5,1.1-1.3,2c0.7,3.8-0.1,7.6,0.1,11.4c0.2,6.5,0,13,0,19.6
	c0,13.3,0,26.5,0.1,39.8c0.1,11.6,0.4,23.2-0.2,34.9c-0.1,2.3,0.6,4.6,0.1,7c-0.9,4.5-4.3,7.5-8.2,7.1c-3.7-0.4-6.2-3.8-6.2-8.3
	C116.1,253.9,116.1,243.3,116.2,232.7C116.1,232.7,116.2,232.7,116.2,232.7z"/>
<path class="st5" d="M96.4,109.5c-0.1-2.5-1.9-4.6-1.8-7.3c0.4-13.9,12.7-24.7,27.9-19.5c9.9,3.4,15.3,15.8,12.5,24.5
	c-2.4,7.4-9.3,13.9-17.2,14.6C107.5,122.9,100.6,118.6,96.4,109.5C96.4,109.6,96.4,109.5,96.4,109.5z"/>
<path class="st6" d="M123.7,289.1c-0.9,0-1.8,0-2.6,0c-3,0-3.8-1.1-2.7-4c0.8-2.2,2.6-3.3,4.6-4.2c0.7-0.3,1.7-0.3,2.2,0.4
	c1.2,1.8,2.9,3.2,3.5,5.3c0.4,1.6,0.5,2.7-1.7,2.4C125.8,289,124.7,289.1,123.7,289.1z"/>
<path class="st6" d="M104.7,289.1c-0.6,0-1.2,0.1-1.8,0c-1.4-0.2-3.6,0.7-3.6-1.7c0-2,0.1-4.3,2.7-5.2c4.2-1.5,8.2,1.5,7.6,5.9
	c-0.1,1-0.7,1-1.5,1C107.1,289.1,105.9,289.1,104.7,289.1z"/>
<path class="st7" d="M136.2,128.3c3.1,1.1,4,3.9,5.3,6.5c2.5,7.4,2.2,15.1,2.3,22.8c0.1,10.4,0,20.9,0.1,31.3c0,2.5-0.3,4.8-1.7,6.9
	c-1,1.1-1.9,2.9-3.7,2c-1.9-1-3.4-2.6-3.4-5c-0.7-5-0.2-10.1-0.2-15.2c0-8.1-0.3-16.2,0.2-24.3c0-0.5,0-1-0.1-1.5
	c-0.5-1.7-1.5-3.4-3.2-3.3c-1.9,0.1-2.8,1.7-2.8,3.8c-0.1,12-0.5,24,0,36c0.1,2.7-0.4,5.4-0.3,8.2c0.4,22.4,0.3,44.7,0.3,67.1
	c0,2.6-0.7,4.8-2.9,6.3c-2.6,1.8-5,1.4-6.8-1.2c-0.6-0.9-1-1.9-1.7-2.7l0,0c-0.6-1-0.3-2.1-0.3-3.2c0-21.1,0-42.2,0-63.3
	c0-1.3,0.2-2.7-1-3.8c-1-0.8-2.1-1.5-3.5-1c-1.3,0.5-1.9,1.4-2,2.9c-0.1,1.5-0.2,2.9-0.2,4.4c0,18.8,0,37.5,0,56.3
	c0,1.3,0,2.5,0.2,3.8c0.4,3.4-1.4,6-3.7,8.2c-2,1.8-5.8,0.4-7.1-2.3c-1-2.3-1.1-4.8-1.1-7.2c0-17.4-0.2-34.7,0-52.1
	c0.1-8.2,0.1-16.3,0.1-24.5c0-8.7,0-17.4-0.1-26.1c0-1.7-0.1-3.3,0.2-5c0.3-1.9-1.4-4.4-2.8-4.6c-1.4-0.2-3.3,2-3.5,4.1
	c-0.1,0.7,0,1.4,0,2.1c0.2,9.6-0.2,19.1,0.2,28.7c0.1,3.5,0,7-0.5,10.5c-0.3,2-1.3,3.3-3.2,3.7c-2.2,0.5-3.5-0.9-4.3-2.7
	c-0.6-1.2-0.7-2.6-0.7-4c0-15.2-0.1-30.5,0.1-45.7c0.1-5.2,0.9-10.3,3.9-14.7c3.3-3.4,7.8-3.6,12-3.7c9.8-0.3,19.5-0.1,29.3-0.1
	c0.4,0,0.8,0.1,1.1,0.3l0,0C132.3,127.7,134.4,127.5,136.2,128.3z"/>
<path class="st8" d="M88.2,130.8c-2.8,4.6-3.5,9.7-3.5,14.8c-0.2,15.1-0.1,30.1-0.1,45.2c0,1.5,0,3,0.7,4.3c0.7,1.5,1.8,2.7,3.6,2.4
	c1.6-0.3,2.5-1.3,2.8-3c0.3-1.7,0.5-3.4,0.5-5.2c0-11.8,0-23.7,0-35.5c0-1.2-0.3-2.6,0.8-3.6c0.9-0.9,1.9-2.6,3.3-2
	c1.4,0.6,2.8,1.8,3,3.7c0.1,0.9,0,1.8,0,2.6c0,35.8,0,71.6,0,107.3c0,2,0,3.9,0.8,5.8c0.8,1.9,2.2,2.9,4.2,3.2c2,0.3,3-0.9,4-2.4
	c1.5-2.3,2.2-4.6,1.8-7.4c-0.4-2.4-0.1-4.9-0.1-7.3c0-16.9,0-33.8,0-50.7c0-1.9,0.3-3.7,0.5-5.5c0.3-2.3,1.7-3.2,3.5-3.2
	c2,0,3.5,1.4,3.6,3.5c0.1,2.4,0.1,4.9,0.1,7.3c0,20.3,0,40.7-0.1,61c-1-1-0.6-2.2-0.6-3.3c0-20.9,0-41.8,0-62.7c0-1.9,0-3.7-2.3-4.6
	c-2-0.7-3.3,0-3.6,2c-0.2,1.3-0.1,2.7-0.1,4.1c0,20.2-0.1,40.4,0.1,60.7c0,3.3-1.2,5.6-3.2,7.8c-2.4,2.7-7.3,1.5-8.6-2.1
	c-0.8-2.3-1.1-4.8-1.1-7.2c-0.1-17,0-33.9,0-50.9c0-6.8,0-13.5,0-20.3c0-10.7,0-21.4,0-32.1c0-1.5,0-2.9,0.3-4.4
	c0.4-1.9-0.8-3.5-2.3-3.9c-1.5-0.4-2.5,1.2-3,2.7c-0.3,0.8-0.2,1.7-0.2,2.6c0,8.1-0.3,16.2,0.1,24.3c0.3,4.9-0.4,9.7-0.2,14.5
	c0.1,2.5-1.2,4.1-3.6,4.6c-2.6,0.6-4.2-0.9-5.2-3.2c-0.5-1.2-0.6-2.4-0.6-3.7c0-15.3-0.1-30.7,0.1-46c0.1-5.3,0.9-10.7,4.6-15.1
	c0.2,0.1,0.2,0.3,0.2,0.5C88.3,130.7,88.2,130.8,88.2,130.8z"/>
<path class="st9" d="M117.5,266.1c1.3,0.1,1.3,1.3,1.8,2c2.4,3.5,4.9,3.8,8.1-0.3c1-1.3,1.2-2.8,1.2-4.4
	c-0.1-15.7,0.2-31.4-0.2-47.1c-0.2-6.7-0.6-13.5-0.3-20.2c0.3-8.2-0.8-16.4,0-24.5c0.7-6.3-0.9-12.6,0.3-18.9c0.5-2.6,1.9-5.1,3.5-5
	c1.9,0.1,3.8,3.1,3.6,5.6c-0.8,8.7-0.4,17.3-0.2,26c0.1,4.5-0.2,8.9-0.3,13.4c-1-0.8-0.6-2-0.6-3c0-11.9,0-23.8,0-35.8
	c0-1.3,0.2-2.6-0.9-3.5c-0.7-0.6-1.2-1.9-2.3-1.4c-1.1,0.5-1.9,1.4-2,2.7c0,0.6,0,1.2,0,1.8c0,36.4,0,72.9,0,109.3
	c0,1.5,0.3,3.2-0.5,4.6c-1.3,2.4-3,4.1-6,3.9C119.3,271.3,118.2,269,117.5,266.1z"/>
<path class="st9" d="M142.2,195.8c1.3-3.4,1.1-6.9,1.1-10.4c0-12.1-0.1-24.2,0.1-36.3c0.1-4.9-1.4-9.6-1.8-14.4
	c2.2,4.8,2.7,10,2.4,15.2c-0.1,2.3,0.5,4.4,0.5,6.6c0,8.8,0,17.5,0,26.3c-0.6,2.7-0.1,5.3-0.3,8c-0.1,1,0.3,2.1-0.3,3.1
	C143.3,194.6,142.7,195.2,142.2,195.8z"/>
<path class="st9" d="M88.2,130.8c0-0.2,0-0.5-0.1-0.7c1.3-2.3,3.7-2.5,5.8-2.8c3.3-0.6,6.7-0.8,10.1-0.7c7.8,0.1,15.6,0,23.3,0
	c1,0,2.2-0.4,3,0.6c-9.4,0-18.7,0-28.1,0.1c-3.3,0-6.6,0.4-9.8,1.2C90.8,128.9,89.8,130.3,88.2,130.8z"/>
<path class="st8" d="M143.8,194c0.4-3.7-0.6-7.5,0.6-11.1C144.1,186.6,145.2,190.4,143.8,194z"/>
<path class="st9" d="M136.2,128.3c-2-0.1-4-0.3-5.9-1.1C132.4,127.1,134.5,126.9,136.2,128.3z"/>
<path class="st10" d="M125,117.7c-0.6,0.4-1.2,0.8-1.8,1.2c-1.3,0.8-2.8,0.6-4.2,1.2c-3.1,0.2-6.3,0.3-9.4-0.6
	c-0.3,0-0.6-0.1-0.9-0.3c-6.2-2.3-9.9-6.9-11.5-13.2c-1.1-4.5-0.2-8.8,1.6-13c5.6-10.1,16.2-12.2,25.6-7.5c4.3,2.2,7.7,5.9,8.6,11.1
	C134.6,105.9,132.7,112.8,125,117.7z"/>
<path class="st11" d="M125,117.7c1.7-2.7,4.4-4.3,6-7.1c3.6-6.2,1.9-17.4-3.6-21.9c-6.7-5.5-14.6-6.5-21.9-2.4
	c-2.8,1.6-4.4,4.4-6.3,6.8c-0.6,0.8-0.2,2.3-1.8,2.3c0.6-4.3,3.5-7.3,6.7-9.5c8.7-6,20.9-4.1,26.8,4.8c5.3,8,4.3,19.3-3.1,25.6
	C127,117.1,126.3,118,125,117.7z"/>
<path class="st12" d="M97.4,95.5c0.6-0.8,1.2-1.6,1.8-2.3c-1.1,3.3-2.1,6.5-1.8,10.1c0.5,6.3,3.4,10.9,8.9,14
	c0.8,0.5,1.6,1.1,2.4,1.6c-0.4,0.4-0.9,0.4-1.4,0.1c-5.2-1.2-7.8-5.4-9.8-9.7C95.6,104.9,95.1,100.1,97.4,95.5z"/>
<path class="st11" d="M107.3,119c0.5,0,0.9-0.1,1.4-0.1c0.2,0,0.3,0,0.5,0c3.3,1,6.6,1.3,10,0.6c1.2-0.9,2.6-0.6,4-0.6
	C117.9,122,112.7,121.7,107.3,119z"/>
<path class="st12" d="M119.2,119.5c-3.4,1.2-6.7,0.9-10-0.6C112.5,119.3,115.9,119.8,119.2,119.5z"/>
</svg>
